<mxfile host="65bd71144e" pages="34">
    <diagram id="vJ12f3vIBQ6xE2jun5z5" name="mysql-query">
        <mxGraphModel dx="898" dy="680" grid="1" gridSize="10" guides="1" tooltips="1" connect="1" arrows="1" fold="1" page="1" pageScale="1" pageWidth="3300" pageHeight="4681" math="0" shadow="0">
            <root>
                <mxCell id="xYU_37f2Vizp6hwaCbxq-0"/>
                <mxCell id="xYU_37f2Vizp6hwaCbxq-1" parent="xYU_37f2Vizp6hwaCbxq-0"/>
                <mxCell id="UHojM3u4uHHe6v0sqRub-3" value="" style="verticalLabelPosition=bottom;verticalAlign=top;html=1;shape=mxgraph.basic.rect;fillColor2=none;strokeWidth=1;size=20;indent=5;fillColor=none;dashed=1;" vertex="1" parent="xYU_37f2Vizp6hwaCbxq-1">
                    <mxGeometry x="710" y="790" width="370" height="90" as="geometry"/>
                </mxCell>
                <mxCell id="UHojM3u4uHHe6v0sqRub-6" style="edgeStyle=orthogonalEdgeStyle;html=1;entryX=0.5;entryY=0.006;entryDx=0;entryDy=0;entryPerimeter=0;fontSize=16;" edge="1" parent="xYU_37f2Vizp6hwaCbxq-1" source="K2Y4hrKL4Ri6JMN_28cM-0" target="UHojM3u4uHHe6v0sqRub-3">
                    <mxGeometry relative="1" as="geometry"/>
                </mxCell>
                <mxCell id="K2Y4hrKL4Ri6JMN_28cM-0" value="" style="verticalLabelPosition=bottom;verticalAlign=top;html=1;shape=mxgraph.basic.rect;fillColor2=none;strokeWidth=1;size=20;indent=5;fillColor=none;dashed=1;" vertex="1" parent="xYU_37f2Vizp6hwaCbxq-1">
                    <mxGeometry x="710" y="360" width="370" height="400" as="geometry"/>
                </mxCell>
                <mxCell id="VkbgTFEJrodnmh2Bbp2M-6" style="edgeStyle=orthogonalEdgeStyle;html=1;" edge="1" parent="xYU_37f2Vizp6hwaCbxq-1" source="Mc0iWp_1hjG7iy1qWbb4-0" target="VkbgTFEJrodnmh2Bbp2M-1">
                    <mxGeometry relative="1" as="geometry">
                        <Array as="points">
                            <mxPoint x="895" y="470"/>
                            <mxPoint x="980" y="470"/>
                        </Array>
                    </mxGeometry>
                </mxCell>
                <mxCell id="VkbgTFEJrodnmh2Bbp2M-8" style="edgeStyle=orthogonalEdgeStyle;html=1;entryX=0.5;entryY=0;entryDx=0;entryDy=0;" edge="1" parent="xYU_37f2Vizp6hwaCbxq-1" source="Mc0iWp_1hjG7iy1qWbb4-0" target="VkbgTFEJrodnmh2Bbp2M-0">
                    <mxGeometry relative="1" as="geometry">
                        <Array as="points">
                            <mxPoint x="895" y="470"/>
                            <mxPoint x="800" y="470"/>
                        </Array>
                    </mxGeometry>
                </mxCell>
                <mxCell id="Mc0iWp_1hjG7iy1qWbb4-0" value="&lt;span style=&quot;font-size: 19px&quot;&gt;连接/线程 处理&lt;/span&gt;" style="rounded=1;whiteSpace=wrap;html=1;strokeWidth=2;fillWeight=4;hachureGap=8;hachureAngle=45;fillColor=#5FAD56;sketch=1;fontSize=16;opacity=60;" vertex="1" parent="xYU_37f2Vizp6hwaCbxq-1">
                    <mxGeometry x="730" y="390" width="330" height="60" as="geometry"/>
                </mxCell>
                <mxCell id="Kssh0Sl3TCErVzUpvNEO-0" value="" style="endArrow=classic;html=1;" edge="1" parent="xYU_37f2Vizp6hwaCbxq-1">
                    <mxGeometry width="50" height="50" relative="1" as="geometry">
                        <mxPoint x="750" y="300" as="sourcePoint"/>
                        <mxPoint x="750" y="360" as="targetPoint"/>
                    </mxGeometry>
                </mxCell>
                <mxCell id="Kssh0Sl3TCErVzUpvNEO-2" value="" style="endArrow=classic;html=1;" edge="1" parent="xYU_37f2Vizp6hwaCbxq-1">
                    <mxGeometry width="50" height="50" relative="1" as="geometry">
                        <mxPoint x="800" y="300" as="sourcePoint"/>
                        <mxPoint x="800" y="360" as="targetPoint"/>
                    </mxGeometry>
                </mxCell>
                <mxCell id="Kssh0Sl3TCErVzUpvNEO-3" value="" style="endArrow=classic;html=1;" edge="1" parent="xYU_37f2Vizp6hwaCbxq-1">
                    <mxGeometry width="50" height="50" relative="1" as="geometry">
                        <mxPoint x="850" y="300" as="sourcePoint"/>
                        <mxPoint x="850" y="360" as="targetPoint"/>
                    </mxGeometry>
                </mxCell>
                <mxCell id="Kssh0Sl3TCErVzUpvNEO-4" value="" style="endArrow=classic;html=1;" edge="1" parent="xYU_37f2Vizp6hwaCbxq-1">
                    <mxGeometry width="50" height="50" relative="1" as="geometry">
                        <mxPoint x="894.5" y="300" as="sourcePoint"/>
                        <mxPoint x="894.5" y="360" as="targetPoint"/>
                    </mxGeometry>
                </mxCell>
                <mxCell id="Kssh0Sl3TCErVzUpvNEO-5" value="" style="endArrow=classic;html=1;" edge="1" parent="xYU_37f2Vizp6hwaCbxq-1">
                    <mxGeometry width="50" height="50" relative="1" as="geometry">
                        <mxPoint x="940" y="300" as="sourcePoint"/>
                        <mxPoint x="940" y="360" as="targetPoint"/>
                    </mxGeometry>
                </mxCell>
                <mxCell id="Kssh0Sl3TCErVzUpvNEO-7" value="" style="endArrow=classic;html=1;" edge="1" parent="xYU_37f2Vizp6hwaCbxq-1">
                    <mxGeometry width="50" height="50" relative="1" as="geometry">
                        <mxPoint x="990" y="300" as="sourcePoint"/>
                        <mxPoint x="990" y="360" as="targetPoint"/>
                    </mxGeometry>
                </mxCell>
                <mxCell id="Kssh0Sl3TCErVzUpvNEO-8" value="" style="endArrow=classic;html=1;" edge="1" parent="xYU_37f2Vizp6hwaCbxq-1">
                    <mxGeometry width="50" height="50" relative="1" as="geometry">
                        <mxPoint x="1040" y="300" as="sourcePoint"/>
                        <mxPoint x="1040" y="360" as="targetPoint"/>
                    </mxGeometry>
                </mxCell>
                <mxCell id="VkbgTFEJrodnmh2Bbp2M-0" value="查询&lt;br&gt;缓存" style="rounded=1;whiteSpace=wrap;html=1;strokeWidth=2;fillWeight=2;hachureGap=8;hachureAngle=45;fillColor=#E9C46A;sketch=1;fontSize=16;fillStyle=dots;opacity=60;" vertex="1" parent="xYU_37f2Vizp6hwaCbxq-1">
                    <mxGeometry x="750" y="500" width="100" height="60" as="geometry"/>
                </mxCell>
                <mxCell id="VkbgTFEJrodnmh2Bbp2M-9" style="edgeStyle=orthogonalEdgeStyle;html=1;entryX=1;entryY=0.5;entryDx=0;entryDy=0;" edge="1" parent="xYU_37f2Vizp6hwaCbxq-1" source="VkbgTFEJrodnmh2Bbp2M-1" target="VkbgTFEJrodnmh2Bbp2M-0">
                    <mxGeometry relative="1" as="geometry"/>
                </mxCell>
                <mxCell id="VkbgTFEJrodnmh2Bbp2M-10" style="edgeStyle=orthogonalEdgeStyle;html=1;entryX=0.5;entryY=0;entryDx=0;entryDy=0;" edge="1" parent="xYU_37f2Vizp6hwaCbxq-1" source="VkbgTFEJrodnmh2Bbp2M-1" target="VkbgTFEJrodnmh2Bbp2M-2">
                    <mxGeometry relative="1" as="geometry"/>
                </mxCell>
                <mxCell id="VkbgTFEJrodnmh2Bbp2M-1" value="&lt;font style=&quot;font-size: 16px&quot;&gt;分析器&lt;/font&gt;" style="rounded=0;whiteSpace=wrap;html=1;strokeWidth=2;fillWeight=2;hachureGap=8;hachureAngle=45;fillColor=#2A9D8F;sketch=1;fontSize=12;fillStyle=dots;opacity=60;" vertex="1" parent="xYU_37f2Vizp6hwaCbxq-1">
                    <mxGeometry x="930" y="500" width="100" height="60" as="geometry"/>
                </mxCell>
                <mxCell id="VkbgTFEJrodnmh2Bbp2M-11" style="edgeStyle=orthogonalEdgeStyle;html=1;entryX=0.5;entryY=0;entryDx=0;entryDy=0;" edge="1" parent="xYU_37f2Vizp6hwaCbxq-1" source="VkbgTFEJrodnmh2Bbp2M-2" target="VkbgTFEJrodnmh2Bbp2M-3">
                    <mxGeometry relative="1" as="geometry"/>
                </mxCell>
                <mxCell id="VkbgTFEJrodnmh2Bbp2M-2" value="优化器" style="rounded=1;whiteSpace=wrap;html=1;strokeWidth=2;fillWeight=2;hachureGap=8;hachureAngle=45;fillColor=#E63946;sketch=1;fontSize=16;fillStyle=dots;opacity=60;" vertex="1" parent="xYU_37f2Vizp6hwaCbxq-1">
                    <mxGeometry x="930" y="590" width="100" height="60" as="geometry"/>
                </mxCell>
                <mxCell id="VkbgTFEJrodnmh2Bbp2M-3" value="执行器" style="rounded=1;whiteSpace=wrap;html=1;strokeWidth=2;fillWeight=2;hachureGap=8;hachureAngle=45;fillColor=#5FAD56;sketch=1;fontSize=16;fillStyle=dots;opacity=60;" vertex="1" parent="xYU_37f2Vizp6hwaCbxq-1">
                    <mxGeometry x="930" y="680" width="100" height="60" as="geometry"/>
                </mxCell>
                <mxCell id="wSOZs7kgo9mFkMrIx0zv-0" value="&lt;br&gt;存储&lt;br&gt;引擎" style="strokeWidth=2;html=1;shape=mxgraph.flowchart.database;whiteSpace=wrap;fontSize=16;fillColor=#E63946;rounded=1;fillWeight=4;hachureGap=8;fillStyle=dashed;sketch=1;hachureAngle=45;opacity=60;" vertex="1" parent="xYU_37f2Vizp6hwaCbxq-1">
                    <mxGeometry x="720" y="800" width="60" height="70" as="geometry"/>
                </mxCell>
                <mxCell id="UHojM3u4uHHe6v0sqRub-0" value="&lt;br&gt;&lt;span&gt;存储&lt;/span&gt;&lt;br&gt;&lt;span&gt;引擎&lt;/span&gt;" style="strokeWidth=2;html=1;shape=mxgraph.flowchart.database;whiteSpace=wrap;fontSize=16;fillColor=#E63946;rounded=1;fillWeight=4;hachureGap=8;fillStyle=dashed;sketch=1;hachureAngle=45;opacity=60;" vertex="1" parent="xYU_37f2Vizp6hwaCbxq-1">
                    <mxGeometry x="820" y="800" width="60" height="70" as="geometry"/>
                </mxCell>
                <mxCell id="UHojM3u4uHHe6v0sqRub-1" value="&lt;br&gt;&lt;span&gt;存储&lt;/span&gt;&lt;br&gt;&lt;span&gt;引擎&lt;/span&gt;" style="strokeWidth=2;html=1;shape=mxgraph.flowchart.database;whiteSpace=wrap;fontSize=16;fillColor=#E63946;rounded=1;fillWeight=4;hachureGap=8;fillStyle=dashed;sketch=1;hachureAngle=45;opacity=60;" vertex="1" parent="xYU_37f2Vizp6hwaCbxq-1">
                    <mxGeometry x="920" y="800" width="60" height="70" as="geometry"/>
                </mxCell>
                <mxCell id="UHojM3u4uHHe6v0sqRub-2" value="&lt;br&gt;&lt;span&gt;存储&lt;/span&gt;&lt;br&gt;&lt;span&gt;引擎&lt;/span&gt;" style="strokeWidth=2;html=1;shape=mxgraph.flowchart.database;whiteSpace=wrap;fontSize=16;fillColor=#E63946;rounded=1;fillWeight=4;hachureGap=8;fillStyle=dashed;sketch=1;hachureAngle=45;opacity=60;" vertex="1" parent="xYU_37f2Vizp6hwaCbxq-1">
                    <mxGeometry x="1010" y="800" width="60" height="70" as="geometry"/>
                </mxCell>
                <mxCell id="q3Vsn3sbr34IogHz3a-7-0" value="客户端" style="text;html=1;align=center;verticalAlign=middle;resizable=0;points=[];autosize=1;strokeColor=none;fillColor=none;fontSize=16;" vertex="1" parent="xYU_37f2Vizp6hwaCbxq-1">
                    <mxGeometry x="850" y="270" width="60" height="20" as="geometry"/>
                </mxCell>
            </root>
        </mxGraphModel>
    </diagram>
    <diagram id="xz_41wDXjVn4lQZiP1j_" name="lock-1">
        <mxGraphModel dx="898" dy="680" grid="1" gridSize="10" guides="1" tooltips="1" connect="1" arrows="1" fold="1" page="1" pageScale="1" pageWidth="3300" pageHeight="4681" math="0" shadow="0">
            <root>
                <mxCell id="yshcTaEUCNdmU_ZUwayz-0"/>
                <mxCell id="yshcTaEUCNdmU_ZUwayz-1" parent="yshcTaEUCNdmU_ZUwayz-0"/>
                <mxCell id="yshcTaEUCNdmU_ZUwayz-2" value="" style="verticalLabelPosition=bottom;verticalAlign=top;html=1;shape=mxgraph.basic.rect;fillColor2=none;strokeWidth=1;size=20;indent=5;fillColor=none;dashed=1;" parent="yshcTaEUCNdmU_ZUwayz-1" vertex="1">
                    <mxGeometry x="230" y="230" width="140" height="350" as="geometry"/>
                </mxCell>
                <mxCell id="yshcTaEUCNdmU_ZUwayz-3" value="" style="verticalLabelPosition=bottom;verticalAlign=top;html=1;shape=mxgraph.basic.rect;fillColor2=none;strokeWidth=1;size=20;indent=5;fillColor=none;dashed=1;" parent="yshcTaEUCNdmU_ZUwayz-1" vertex="1">
                    <mxGeometry x="610" y="220" width="370" height="350" as="geometry"/>
                </mxCell>
                <mxCell id="yshcTaEUCNdmU_ZUwayz-5" value="删除锁&lt;br&gt;线程2的锁被&lt;br&gt;错误删除" style="ellipse;whiteSpace=wrap;html=1;strokeWidth=2;fillWeight=2;hachureGap=8;fillColor=none;fillStyle=dots;sketch=1;fontSize=16;" parent="yshcTaEUCNdmU_ZUwayz-1" vertex="1">
                    <mxGeometry x="240" y="400" width="120" height="80" as="geometry"/>
                </mxCell>
                <mxCell id="yshcTaEUCNdmU_ZUwayz-7" style="edgeStyle=none;html=1;entryX=0.5;entryY=0;entryDx=0;entryDy=0;" parent="yshcTaEUCNdmU_ZUwayz-1" target="yshcTaEUCNdmU_ZUwayz-5" edge="1">
                    <mxGeometry relative="1" as="geometry">
                        <mxPoint x="300" y="310" as="sourcePoint"/>
                    </mxGeometry>
                </mxCell>
                <mxCell id="yshcTaEUCNdmU_ZUwayz-8" style="edgeStyle=none;html=1;entryX=0.5;entryY=0;entryDx=0;entryDy=0;fontSize=11;strokeColor=default;" parent="yshcTaEUCNdmU_ZUwayz-1" source="yshcTaEUCNdmU_ZUwayz-9" target="yshcTaEUCNdmU_ZUwayz-23" edge="1">
                    <mxGeometry relative="1" as="geometry"/>
                </mxCell>
                <mxCell id="yshcTaEUCNdmU_ZUwayz-9" value="锁被线程1&lt;br&gt;自动释放&lt;br&gt;获取锁" style="ellipse;whiteSpace=wrap;html=1;strokeWidth=2;fillWeight=2;hachureGap=8;fillColor=none;fillStyle=dots;sketch=1;fontSize=16;" parent="yshcTaEUCNdmU_ZUwayz-1" vertex="1">
                    <mxGeometry x="400" y="340" width="120" height="70" as="geometry"/>
                </mxCell>
                <mxCell id="yshcTaEUCNdmU_ZUwayz-10" value="&lt;font style=&quot;font-size: 16px&quot;&gt;线程1&lt;/font&gt;" style="text;html=1;align=center;verticalAlign=middle;resizable=0;points=[];autosize=1;strokeColor=none;fillColor=none;strokeWidth=1;" parent="yshcTaEUCNdmU_ZUwayz-1" vertex="1">
                    <mxGeometry x="260" y="200" width="60" height="20" as="geometry"/>
                </mxCell>
                <mxCell id="yshcTaEUCNdmU_ZUwayz-11" value="&lt;font style=&quot;font-size: 16px&quot;&gt;线程2&lt;/font&gt;" style="text;html=1;align=center;verticalAlign=middle;resizable=0;points=[];autosize=1;strokeColor=none;fillColor=none;" parent="yshcTaEUCNdmU_ZUwayz-1" vertex="1">
                    <mxGeometry x="425" y="200" width="60" height="20" as="geometry"/>
                </mxCell>
                <mxCell id="yshcTaEUCNdmU_ZUwayz-12" value="获取锁&lt;br&gt;设置T2时刻&lt;br&gt;过期" style="ellipse;whiteSpace=wrap;html=1;strokeWidth=2;fillWeight=2;hachureGap=8;fillColor=none;fillStyle=dots;sketch=1;fontSize=16;" parent="yshcTaEUCNdmU_ZUwayz-1" vertex="1">
                    <mxGeometry x="240" y="250" width="120" height="60" as="geometry"/>
                </mxCell>
                <mxCell id="yshcTaEUCNdmU_ZUwayz-14" value="栗如：线程1会错误释放线程2的锁" style="text;html=1;align=center;verticalAlign=middle;resizable=0;points=[];autosize=1;strokeColor=none;fillColor=none;fontSize=16;" parent="yshcTaEUCNdmU_ZUwayz-1" vertex="1">
                    <mxGeometry x="240" y="160" width="260" height="20" as="geometry"/>
                </mxCell>
                <mxCell id="yshcTaEUCNdmU_ZUwayz-15" value="" style="endArrow=classic;html=1;fontSize=11;strokeColor=default;" parent="yshcTaEUCNdmU_ZUwayz-1" edge="1">
                    <mxGeometry width="50" height="50" relative="1" as="geometry">
                        <mxPoint x="190" y="230" as="sourcePoint"/>
                        <mxPoint x="190" y="580" as="targetPoint"/>
                    </mxGeometry>
                </mxCell>
                <mxCell id="yshcTaEUCNdmU_ZUwayz-16" value="时间" style="text;html=1;align=center;verticalAlign=middle;resizable=0;points=[];autosize=1;strokeColor=none;fillColor=none;fontSize=16;" parent="yshcTaEUCNdmU_ZUwayz-1" vertex="1">
                    <mxGeometry x="165" y="200" width="50" height="20" as="geometry"/>
                </mxCell>
                <mxCell id="yshcTaEUCNdmU_ZUwayz-17" value="T1" style="text;html=1;align=center;verticalAlign=middle;resizable=0;points=[];autosize=1;strokeColor=none;fillColor=none;fontSize=16;" parent="yshcTaEUCNdmU_ZUwayz-1" vertex="1">
                    <mxGeometry x="145" y="270" width="30" height="20" as="geometry"/>
                </mxCell>
                <mxCell id="yshcTaEUCNdmU_ZUwayz-18" value="T2" style="text;html=1;align=center;verticalAlign=middle;resizable=0;points=[];autosize=1;strokeColor=none;fillColor=none;fontSize=16;" parent="yshcTaEUCNdmU_ZUwayz-1" vertex="1">
                    <mxGeometry x="145" y="340" width="30" height="20" as="geometry"/>
                </mxCell>
                <mxCell id="yshcTaEUCNdmU_ZUwayz-19" value="T3" style="text;html=1;align=center;verticalAlign=middle;resizable=0;points=[];autosize=1;strokeColor=none;fillColor=none;fontSize=16;" parent="yshcTaEUCNdmU_ZUwayz-1" vertex="1">
                    <mxGeometry x="145" y="410" width="30" height="20" as="geometry"/>
                </mxCell>
                <mxCell id="yshcTaEUCNdmU_ZUwayz-20" value="T4" style="text;html=1;align=center;verticalAlign=middle;resizable=0;points=[];autosize=1;strokeColor=none;fillColor=none;fontSize=16;" parent="yshcTaEUCNdmU_ZUwayz-1" vertex="1">
                    <mxGeometry x="145" y="470" width="30" height="20" as="geometry"/>
                </mxCell>
                <mxCell id="yshcTaEUCNdmU_ZUwayz-21" value="T5" style="text;html=1;align=center;verticalAlign=middle;resizable=0;points=[];autosize=1;strokeColor=none;fillColor=none;fontSize=16;" parent="yshcTaEUCNdmU_ZUwayz-1" vertex="1">
                    <mxGeometry x="145" y="550" width="30" height="20" as="geometry"/>
                </mxCell>
                <mxCell id="yshcTaEUCNdmU_ZUwayz-23" value="删除锁" style="ellipse;whiteSpace=wrap;html=1;strokeWidth=2;fillWeight=2;hachureGap=8;fillColor=none;fillStyle=dots;sketch=1;fontSize=16;" parent="yshcTaEUCNdmU_ZUwayz-1" vertex="1">
                    <mxGeometry x="400" y="480" width="120" height="80" as="geometry"/>
                </mxCell>
            </root>
        </mxGraphModel>
    </diagram>
    <diagram id="9PueQ3iuS_BbfX4mG7ux" name="lua">
        <mxGraphModel dx="898" dy="680" grid="1" gridSize="10" guides="1" tooltips="1" connect="1" arrows="1" fold="1" page="1" pageScale="1" pageWidth="3300" pageHeight="4681" math="0" shadow="0">
            <root>
                <mxCell id="_AbgoNR5f22-4XCcsYsd-0"/>
                <mxCell id="_AbgoNR5f22-4XCcsYsd-1" parent="_AbgoNR5f22-4XCcsYsd-0"/>
                <mxCell id="4KtR6RyWl9yGdZtr8YqL-0" style="edgeStyle=orthogonalEdgeStyle;html=1;fontSize=17;" parent="_AbgoNR5f22-4XCcsYsd-1" source="g1lSDN32JN3XuLWfMvmo-3" target="d_oyLGucOkZHfX2iY-zA-16" edge="1">
                    <mxGeometry relative="1" as="geometry">
                        <Array as="points">
                            <mxPoint x="560" y="310"/>
                            <mxPoint x="560" y="310"/>
                        </Array>
                    </mxGeometry>
                </mxCell>
                <mxCell id="4KtR6RyWl9yGdZtr8YqL-11" style="edgeStyle=orthogonalEdgeStyle;html=1;fontSize=17;" parent="_AbgoNR5f22-4XCcsYsd-1" source="g1lSDN32JN3XuLWfMvmo-3" target="d_oyLGucOkZHfX2iY-zA-17" edge="1">
                    <mxGeometry relative="1" as="geometry">
                        <Array as="points">
                            <mxPoint x="690" y="570"/>
                            <mxPoint x="690" y="570"/>
                        </Array>
                    </mxGeometry>
                </mxCell>
                <mxCell id="BUHFFP4ReER_kq9s59T7-3" style="edgeStyle=orthogonalEdgeStyle;html=1;entryX=0.5;entryY=1;entryDx=0;entryDy=0;fontSize=17;" parent="_AbgoNR5f22-4XCcsYsd-1" source="g1lSDN32JN3XuLWfMvmo-3" target="BUHFFP4ReER_kq9s59T7-0" edge="1">
                    <mxGeometry relative="1" as="geometry">
                        <Array as="points">
                            <mxPoint x="250" y="860"/>
                        </Array>
                    </mxGeometry>
                </mxCell>
                <mxCell id="BUHFFP4ReER_kq9s59T7-5" value="回复调用者执行的结果" style="edgeLabel;html=1;align=center;verticalAlign=middle;resizable=0;points=[];fontSize=17;" parent="BUHFFP4ReER_kq9s59T7-3" vertex="1" connectable="0">
                    <mxGeometry x="-0.4833" y="-1" relative="1" as="geometry">
                        <mxPoint x="28" as="offset"/>
                    </mxGeometry>
                </mxCell>
                <mxCell id="g1lSDN32JN3XuLWfMvmo-3" value="&lt;font style=&quot;font-size: 17px&quot;&gt;Redis&lt;/font&gt;" style="shape=umlLifeline;perimeter=lifelinePerimeter;whiteSpace=wrap;html=1;container=1;collapsible=0;recursiveResize=0;outlineConnect=0;fontSize=12;fillColor=#E9C46A;rounded=1;strokeWidth=2;sketch=1;fillWeight=4;hachureGap=8;hachureAngle=45;fillStyle=dashed;" parent="_AbgoNR5f22-4XCcsYsd-1" vertex="1">
                    <mxGeometry x="420" y="220" width="100" height="660" as="geometry"/>
                </mxCell>
                <mxCell id="g1lSDN32JN3XuLWfMvmo-14" value="给EVAL执行的命令&lt;br&gt;创建Lua脚本" style="text;html=1;align=center;verticalAlign=middle;resizable=0;points=[];autosize=1;strokeColor=none;fillColor=none;fontSize=16;" parent="_AbgoNR5f22-4XCcsYsd-1" vertex="1">
                    <mxGeometry x="510" y="270" width="150" height="40" as="geometry"/>
                </mxCell>
                <mxCell id="4KtR6RyWl9yGdZtr8YqL-20" style="edgeStyle=orthogonalEdgeStyle;html=1;fontSize=17;" parent="_AbgoNR5f22-4XCcsYsd-1" source="d_oyLGucOkZHfX2iY-zA-16" target="g1lSDN32JN3XuLWfMvmo-3" edge="1">
                    <mxGeometry relative="1" as="geometry">
                        <Array as="points">
                            <mxPoint x="590" y="840"/>
                            <mxPoint x="590" y="840"/>
                        </Array>
                    </mxGeometry>
                </mxCell>
                <mxCell id="d_oyLGucOkZHfX2iY-zA-16" value="&lt;font style=&quot;font-size: 17px&quot;&gt;Lua&lt;/font&gt;" style="shape=umlLifeline;perimeter=lifelinePerimeter;whiteSpace=wrap;html=1;container=1;collapsible=0;recursiveResize=0;outlineConnect=0;fontSize=12;fillColor=#5FAD56;rounded=1;strokeWidth=2;sketch=1;fillWeight=4;hachureGap=8;hachureAngle=45;fillStyle=dashed;" parent="_AbgoNR5f22-4XCcsYsd-1" vertex="1">
                    <mxGeometry x="660" y="220" width="100" height="660" as="geometry"/>
                </mxCell>
                <mxCell id="4KtR6RyWl9yGdZtr8YqL-1" style="edgeStyle=orthogonalEdgeStyle;html=1;fontSize=17;" parent="d_oyLGucOkZHfX2iY-zA-16" edge="1">
                    <mxGeometry relative="1" as="geometry">
                        <mxPoint x="-194.5" y="150" as="sourcePoint"/>
                        <mxPoint x="44.5" y="150" as="targetPoint"/>
                        <Array as="points">
                            <mxPoint x="-104.5" y="150"/>
                            <mxPoint x="-104.5" y="150"/>
                        </Array>
                    </mxGeometry>
                </mxCell>
                <mxCell id="4KtR6RyWl9yGdZtr8YqL-9" style="edgeStyle=orthogonalEdgeStyle;html=1;fontSize=17;" parent="_AbgoNR5f22-4XCcsYsd-1" source="d_oyLGucOkZHfX2iY-zA-17" target="g1lSDN32JN3XuLWfMvmo-3" edge="1">
                    <mxGeometry relative="1" as="geometry">
                        <Array as="points">
                            <mxPoint x="720" y="510"/>
                            <mxPoint x="720" y="510"/>
                        </Array>
                    </mxGeometry>
                </mxCell>
                <mxCell id="4KtR6RyWl9yGdZtr8YqL-14" style="edgeStyle=orthogonalEdgeStyle;html=1;fontSize=17;" parent="_AbgoNR5f22-4XCcsYsd-1" source="d_oyLGucOkZHfX2iY-zA-17" target="d_oyLGucOkZHfX2iY-zA-16" edge="1">
                    <mxGeometry relative="1" as="geometry">
                        <Array as="points">
                            <mxPoint x="830" y="630"/>
                            <mxPoint x="830" y="630"/>
                        </Array>
                    </mxGeometry>
                </mxCell>
                <mxCell id="d_oyLGucOkZHfX2iY-zA-17" value="&lt;font style=&quot;font-size: 17px&quot;&gt;伪客户端&lt;/font&gt;" style="shape=umlLifeline;perimeter=lifelinePerimeter;whiteSpace=wrap;html=1;container=1;collapsible=0;recursiveResize=0;outlineConnect=0;fontSize=12;fillColor=#E63946;rounded=1;strokeWidth=2;sketch=1;fillWeight=4;hachureGap=8;hachureAngle=45;fillStyle=dashed;" parent="_AbgoNR5f22-4XCcsYsd-1" vertex="1">
                    <mxGeometry x="900" y="220" width="100" height="660" as="geometry"/>
                </mxCell>
                <mxCell id="4KtR6RyWl9yGdZtr8YqL-2" value="绑定超时函数" style="text;html=1;align=center;verticalAlign=middle;resizable=0;points=[];autosize=1;strokeColor=none;fillColor=none;fontSize=16;" parent="_AbgoNR5f22-4XCcsYsd-1" vertex="1">
                    <mxGeometry x="530" y="340" width="110" height="20" as="geometry"/>
                </mxCell>
                <mxCell id="4KtR6RyWl9yGdZtr8YqL-3" style="edgeStyle=orthogonalEdgeStyle;html=1;fontSize=17;" parent="_AbgoNR5f22-4XCcsYsd-1" edge="1">
                    <mxGeometry relative="1" as="geometry">
                        <mxPoint x="465.5" y="420" as="sourcePoint"/>
                        <mxPoint x="704.5" y="420" as="targetPoint"/>
                        <Array as="points">
                            <mxPoint x="555.5" y="420"/>
                            <mxPoint x="555.5" y="420"/>
                        </Array>
                    </mxGeometry>
                </mxCell>
                <mxCell id="4KtR6RyWl9yGdZtr8YqL-4" value="执行脚本函数" style="text;html=1;align=center;verticalAlign=middle;resizable=0;points=[];autosize=1;strokeColor=none;fillColor=none;fontSize=16;" parent="_AbgoNR5f22-4XCcsYsd-1" vertex="1">
                    <mxGeometry x="530" y="390" width="110" height="20" as="geometry"/>
                </mxCell>
                <mxCell id="4KtR6RyWl9yGdZtr8YqL-5" style="edgeStyle=orthogonalEdgeStyle;html=1;fontSize=17;" parent="_AbgoNR5f22-4XCcsYsd-1" edge="1">
                    <mxGeometry relative="1" as="geometry">
                        <mxPoint x="710" y="450" as="sourcePoint"/>
                        <mxPoint x="949" y="450" as="targetPoint"/>
                        <Array as="points">
                            <mxPoint x="800" y="450"/>
                            <mxPoint x="800" y="450"/>
                        </Array>
                    </mxGeometry>
                </mxCell>
                <mxCell id="4KtR6RyWl9yGdZtr8YqL-6" value="执行&lt;br&gt;&lt;span style=&quot;font-size: 17px&quot;&gt;redis.call('get',KEYS[1])&lt;/span&gt;" style="text;html=1;align=center;verticalAlign=middle;resizable=0;points=[];autosize=1;strokeColor=none;fillColor=none;fontSize=16;" parent="_AbgoNR5f22-4XCcsYsd-1" vertex="1">
                    <mxGeometry x="735" y="670" width="190" height="40" as="geometry"/>
                </mxCell>
                <mxCell id="4KtR6RyWl9yGdZtr8YqL-8" value="&lt;div style=&quot;text-align: left&quot;&gt;redis.call('incr',KEYS[1])&lt;/div&gt;&lt;div style=&quot;text-align: left&quot;&gt;local value=redis.call('get',KEYS[1])&lt;/div&gt;&lt;div style=&quot;text-align: left&quot;&gt;&lt;span&gt;return value&lt;/span&gt;&lt;br&gt;&lt;/div&gt;" style="text;html=1;align=center;verticalAlign=middle;resizable=0;points=[];autosize=1;strokeColor=none;fillColor=none;fontSize=17;" parent="_AbgoNR5f22-4XCcsYsd-1" vertex="1">
                    <mxGeometry x="190" y="330" width="280" height="70" as="geometry"/>
                </mxCell>
                <mxCell id="4KtR6RyWl9yGdZtr8YqL-10" value="伪客户端向Redis &lt;br&gt;发送&amp;nbsp;&lt;span style=&quot;font-size: 17px&quot;&gt;incr 操作&lt;/span&gt;" style="text;html=1;align=center;verticalAlign=middle;resizable=0;points=[];autosize=1;strokeColor=none;fillColor=none;fontSize=16;" parent="_AbgoNR5f22-4XCcsYsd-1" vertex="1">
                    <mxGeometry x="765" y="470" width="140" height="40" as="geometry"/>
                </mxCell>
                <mxCell id="4KtR6RyWl9yGdZtr8YqL-13" value="服务器将 incr 的执行结果返回给伪客户端" style="text;html=1;align=center;verticalAlign=middle;resizable=0;points=[];autosize=1;strokeColor=none;fillColor=none;fontSize=16;" parent="_AbgoNR5f22-4XCcsYsd-1" vertex="1">
                    <mxGeometry x="555" y="540" width="310" height="20" as="geometry"/>
                </mxCell>
                <mxCell id="4KtR6RyWl9yGdZtr8YqL-15" value="伪客户端将返回值转&lt;br&gt;换成lua值返还给lua环境" style="text;html=1;align=center;verticalAlign=middle;resizable=0;points=[];autosize=1;strokeColor=none;fillColor=none;fontSize=17;" parent="_AbgoNR5f22-4XCcsYsd-1" vertex="1">
                    <mxGeometry x="720" y="585" width="200" height="50" as="geometry"/>
                </mxCell>
                <mxCell id="4KtR6RyWl9yGdZtr8YqL-17" style="edgeStyle=orthogonalEdgeStyle;html=1;fontSize=17;" parent="_AbgoNR5f22-4XCcsYsd-1" edge="1">
                    <mxGeometry relative="1" as="geometry">
                        <mxPoint x="710.5" y="710" as="sourcePoint"/>
                        <mxPoint x="949.5" y="710" as="targetPoint"/>
                        <Array as="points">
                            <mxPoint x="800.5" y="710"/>
                            <mxPoint x="800.5" y="710"/>
                        </Array>
                    </mxGeometry>
                </mxCell>
                <mxCell id="4KtR6RyWl9yGdZtr8YqL-18" value="执行&lt;br&gt;&lt;span style=&quot;font-size: 17px&quot;&gt;redis.call('incr',KEYS[1])&lt;/span&gt;&lt;br&gt;" style="text;html=1;align=center;verticalAlign=middle;resizable=0;points=[];autosize=1;strokeColor=none;fillColor=none;fontSize=16;" parent="_AbgoNR5f22-4XCcsYsd-1" vertex="1">
                    <mxGeometry x="735" y="410" width="200" height="40" as="geometry"/>
                </mxCell>
                <mxCell id="4KtR6RyWl9yGdZtr8YqL-19" value="...&lt;br&gt;执行流程和&lt;br&gt;redis.call('incr',KEYS[1])&lt;br&gt;一样" style="text;html=1;align=center;verticalAlign=middle;resizable=0;points=[];autosize=1;strokeColor=none;fillColor=none;fontSize=17;" parent="_AbgoNR5f22-4XCcsYsd-1" vertex="1">
                    <mxGeometry x="720" y="710" width="200" height="90" as="geometry"/>
                </mxCell>
                <mxCell id="4KtR6RyWl9yGdZtr8YqL-21" value="lua环境将最终&lt;br&gt;执行的结果返回给Redis" style="text;html=1;align=center;verticalAlign=middle;resizable=0;points=[];autosize=1;strokeColor=none;fillColor=none;fontSize=17;" parent="_AbgoNR5f22-4XCcsYsd-1" vertex="1">
                    <mxGeometry x="490" y="780" width="200" height="50" as="geometry"/>
                </mxCell>
                <mxCell id="BUHFFP4ReER_kq9s59T7-2" style="edgeStyle=orthogonalEdgeStyle;html=1;fontSize=17;" parent="_AbgoNR5f22-4XCcsYsd-1" source="BUHFFP4ReER_kq9s59T7-0" target="g1lSDN32JN3XuLWfMvmo-3" edge="1">
                    <mxGeometry relative="1" as="geometry">
                        <Array as="points">
                            <mxPoint x="365" y="480"/>
                            <mxPoint x="365" y="290"/>
                        </Array>
                    </mxGeometry>
                </mxCell>
                <mxCell id="BUHFFP4ReER_kq9s59T7-4" value="发起命令请求" style="edgeLabel;html=1;align=center;verticalAlign=middle;resizable=0;points=[];fontSize=17;" parent="BUHFFP4ReER_kq9s59T7-2" vertex="1" connectable="0">
                    <mxGeometry x="-0.4269" relative="1" as="geometry">
                        <mxPoint as="offset"/>
                    </mxGeometry>
                </mxCell>
                <mxCell id="BUHFFP4ReER_kq9s59T7-0" value="&lt;font style=&quot;font-size: 17px&quot;&gt;caller&lt;/font&gt;" style="ellipse;whiteSpace=wrap;html=1;strokeWidth=2;fillWeight=2;hachureGap=8;fillStyle=dots;sketch=1;fillColor=#E9C46A;" parent="_AbgoNR5f22-4XCcsYsd-1" vertex="1">
                    <mxGeometry x="190" y="450" width="120" height="60" as="geometry"/>
                </mxCell>
            </root>
        </mxGraphModel>
    </diagram>
    <diagram id="3n921f3iXirqcN1u3Ysv" name="single">
        <mxGraphModel dx="898" dy="680" grid="1" gridSize="10" guides="1" tooltips="1" connect="1" arrows="1" fold="1" page="1" pageScale="1" pageWidth="3300" pageHeight="4681" math="0" shadow="0">
            <root>
                <mxCell id="KkZHtV6HfjBjP-QfyIvR-0"/>
                <mxCell id="KkZHtV6HfjBjP-QfyIvR-1" parent="KkZHtV6HfjBjP-QfyIvR-0"/>
                <mxCell id="rrIn8BsDmMunWOERDtQa-9" value="" style="verticalLabelPosition=bottom;verticalAlign=top;html=1;shape=mxgraph.basic.rect;fillColor2=none;strokeWidth=1;size=20;indent=5;fillColor=none;dashed=1;" parent="KkZHtV6HfjBjP-QfyIvR-1" vertex="1">
                    <mxGeometry x="300" y="1040" width="780" height="660" as="geometry"/>
                </mxCell>
                <mxCell id="rrIn8BsDmMunWOERDtQa-5" value="" style="verticalLabelPosition=bottom;verticalAlign=top;html=1;shape=mxgraph.basic.rect;fillColor2=none;strokeWidth=1;size=20;indent=5;fillColor=none;dashed=1;" parent="KkZHtV6HfjBjP-QfyIvR-1" vertex="1">
                    <mxGeometry x="700" y="1250" width="280" height="440" as="geometry"/>
                </mxCell>
                <mxCell id="vicqEd6XC0AAev5NyINa-0" value="" style="verticalLabelPosition=bottom;verticalAlign=top;html=1;shape=mxgraph.basic.rect;fillColor2=none;strokeWidth=1;size=20;indent=5;fillColor=none;dashed=1;" parent="KkZHtV6HfjBjP-QfyIvR-1" vertex="1">
                    <mxGeometry x="300" y="1250" width="200" height="440" as="geometry"/>
                </mxCell>
                <mxCell id="rrIn8BsDmMunWOERDtQa-23" style="edgeStyle=orthogonalEdgeStyle;html=1;entryX=0.5;entryY=0;entryDx=0;entryDy=0;fontSize=16;startArrow=none;startFill=0;" parent="KkZHtV6HfjBjP-QfyIvR-1" source="Fyzt-uK-mrvEkcZ5hX47-2" target="rrIn8BsDmMunWOERDtQa-2" edge="1">
                    <mxGeometry relative="1" as="geometry"/>
                </mxCell>
                <mxCell id="rrIn8BsDmMunWOERDtQa-24" style="edgeStyle=orthogonalEdgeStyle;html=1;entryX=0.5;entryY=0;entryDx=0;entryDy=0;fontSize=16;startArrow=none;startFill=0;" parent="KkZHtV6HfjBjP-QfyIvR-1" source="Fyzt-uK-mrvEkcZ5hX47-2" target="rrIn8BsDmMunWOERDtQa-17" edge="1">
                    <mxGeometry relative="1" as="geometry"/>
                </mxCell>
                <mxCell id="rrIn8BsDmMunWOERDtQa-25" style="edgeStyle=orthogonalEdgeStyle;html=1;entryX=0.5;entryY=0;entryDx=0;entryDy=0;fontSize=16;startArrow=none;startFill=0;" parent="KkZHtV6HfjBjP-QfyIvR-1" source="Fyzt-uK-mrvEkcZ5hX47-2" target="rrIn8BsDmMunWOERDtQa-15" edge="1">
                    <mxGeometry relative="1" as="geometry"/>
                </mxCell>
                <mxCell id="rrIn8BsDmMunWOERDtQa-26" style="edgeStyle=orthogonalEdgeStyle;html=1;entryX=0.5;entryY=0;entryDx=0;entryDy=0;fontSize=16;startArrow=none;startFill=0;" parent="KkZHtV6HfjBjP-QfyIvR-1" source="Fyzt-uK-mrvEkcZ5hX47-2" target="rrIn8BsDmMunWOERDtQa-16" edge="1">
                    <mxGeometry relative="1" as="geometry"/>
                </mxCell>
                <mxCell id="Fyzt-uK-mrvEkcZ5hX47-2" value="&lt;font style=&quot;font-size: 19px&quot;&gt;I/O&lt;br&gt;Multiplexing&lt;/font&gt;" style="rounded=1;whiteSpace=wrap;html=1;strokeWidth=2;fillWeight=4;hachureGap=8;hachureAngle=45;fillColor=#5FAD56;sketch=1;fontSize=16;opacity=60;" parent="KkZHtV6HfjBjP-QfyIvR-1" vertex="1">
                    <mxGeometry x="440" y="1060" width="330" height="60" as="geometry"/>
                </mxCell>
                <mxCell id="Fyzt-uK-mrvEkcZ5hX47-3" style="edgeStyle=orthogonalEdgeStyle;html=1;entryX=0.5;entryY=0;entryDx=0;entryDy=0;fontSize=25;startArrow=classic;startFill=1;" parent="KkZHtV6HfjBjP-QfyIvR-1" source="Fyzt-uK-mrvEkcZ5hX47-4" target="Fyzt-uK-mrvEkcZ5hX47-2" edge="1">
                    <mxGeometry relative="1" as="geometry">
                        <Array as="points">
                            <mxPoint x="470" y="1030"/>
                            <mxPoint x="605" y="1030"/>
                        </Array>
                    </mxGeometry>
                </mxCell>
                <mxCell id="Fyzt-uK-mrvEkcZ5hX47-4" value="&lt;font style=&quot;font-size: 18px&quot;&gt;socket&lt;/font&gt;" style="ellipse;whiteSpace=wrap;html=1;strokeWidth=2;fillWeight=2;hachureGap=8;fillColor=#E9C46A;fillStyle=dots;sketch=1;fontSize=16;opacity=60;" parent="KkZHtV6HfjBjP-QfyIvR-1" vertex="1">
                    <mxGeometry x="410" y="950" width="120" height="60" as="geometry"/>
                </mxCell>
                <mxCell id="Fyzt-uK-mrvEkcZ5hX47-24" style="edgeStyle=orthogonalEdgeStyle;html=1;entryX=0.5;entryY=0;entryDx=0;entryDy=0;fontSize=18;exitX=0.5;exitY=1;exitDx=0;exitDy=0;startArrow=classic;startFill=1;" parent="KkZHtV6HfjBjP-QfyIvR-1" source="Fyzt-uK-mrvEkcZ5hX47-6" target="Fyzt-uK-mrvEkcZ5hX47-2" edge="1">
                    <mxGeometry relative="1" as="geometry">
                        <Array as="points">
                            <mxPoint x="740" y="1030"/>
                            <mxPoint x="605" y="1030"/>
                        </Array>
                    </mxGeometry>
                </mxCell>
                <mxCell id="Fyzt-uK-mrvEkcZ5hX47-6" value="&lt;font style=&quot;font-size: 18px&quot;&gt;socket&lt;/font&gt;" style="ellipse;whiteSpace=wrap;html=1;strokeWidth=2;fillWeight=2;hachureGap=8;fillColor=#E9C46A;fillStyle=dots;sketch=1;fontSize=16;opacity=60;" parent="KkZHtV6HfjBjP-QfyIvR-1" vertex="1">
                    <mxGeometry x="680" y="950" width="120" height="60" as="geometry"/>
                </mxCell>
                <mxCell id="qVk-_wfB0VwJsGi2b_M8-5" style="edgeStyle=orthogonalEdgeStyle;html=1;fontSize=16;startArrow=none;startFill=0;" parent="KkZHtV6HfjBjP-QfyIvR-1" source="Fyzt-uK-mrvEkcZ5hX47-14" target="Fyzt-uK-mrvEkcZ5hX47-16" edge="1">
                    <mxGeometry relative="1" as="geometry"/>
                </mxCell>
                <mxCell id="Fyzt-uK-mrvEkcZ5hX47-14" value="&lt;font style=&quot;font-size: 18px&quot;&gt;aeApiPoll&lt;/font&gt;" style="rounded=1;whiteSpace=wrap;html=1;strokeWidth=2;fillWeight=4;hachureGap=8;hachureAngle=45;fillColor=#5FAD56;sketch=1;fontSize=16;opacity=60;" parent="KkZHtV6HfjBjP-QfyIvR-1" vertex="1">
                    <mxGeometry x="530" y="1270" width="150" height="60" as="geometry"/>
                </mxCell>
                <mxCell id="qVk-_wfB0VwJsGi2b_M8-6" style="edgeStyle=orthogonalEdgeStyle;html=1;entryX=0.5;entryY=0;entryDx=0;entryDy=0;fontSize=16;startArrow=none;startFill=0;" parent="KkZHtV6HfjBjP-QfyIvR-1" source="Fyzt-uK-mrvEkcZ5hX47-16" target="qVk-_wfB0VwJsGi2b_M8-0" edge="1">
                    <mxGeometry relative="1" as="geometry"/>
                </mxCell>
                <mxCell id="Fyzt-uK-mrvEkcZ5hX47-16" value="acceptTcpHandler" style="rounded=1;whiteSpace=wrap;html=1;strokeWidth=2;fillWeight=2;hachureGap=8;hachureAngle=45;fillColor=#E9C46A;sketch=1;fontSize=16;fillStyle=dots;opacity=60;" parent="KkZHtV6HfjBjP-QfyIvR-1" vertex="1">
                    <mxGeometry x="320" y="1270" width="160" height="60" as="geometry"/>
                </mxCell>
                <mxCell id="Fyzt-uK-mrvEkcZ5hX47-25" style="edgeStyle=orthogonalEdgeStyle;html=1;entryX=0.5;entryY=0;entryDx=0;entryDy=0;fontSize=18;startArrow=classic;startFill=1;" parent="KkZHtV6HfjBjP-QfyIvR-1" source="Fyzt-uK-mrvEkcZ5hX47-21" target="Fyzt-uK-mrvEkcZ5hX47-2" edge="1">
                    <mxGeometry relative="1" as="geometry"/>
                </mxCell>
                <mxCell id="Fyzt-uK-mrvEkcZ5hX47-21" value="&lt;font style=&quot;font-size: 18px&quot;&gt;socket&lt;/font&gt;" style="ellipse;whiteSpace=wrap;html=1;strokeWidth=2;fillWeight=2;hachureGap=8;fillColor=#E9C46A;fillStyle=dots;sketch=1;fontSize=16;opacity=60;" parent="KkZHtV6HfjBjP-QfyIvR-1" vertex="1">
                    <mxGeometry x="545" y="950" width="120" height="60" as="geometry"/>
                </mxCell>
                <mxCell id="Fyzt-uK-mrvEkcZ5hX47-29" style="edgeStyle=orthogonalEdgeStyle;html=1;entryX=0.425;entryY=0;entryDx=0;entryDy=0;entryPerimeter=0;fontSize=19;startArrow=classic;startFill=1;" parent="KkZHtV6HfjBjP-QfyIvR-1" source="Fyzt-uK-mrvEkcZ5hX47-26" target="Fyzt-uK-mrvEkcZ5hX47-4" edge="1">
                    <mxGeometry relative="1" as="geometry"/>
                </mxCell>
                <mxCell id="Fyzt-uK-mrvEkcZ5hX47-26" value="&lt;font style=&quot;font-size: 18px&quot;&gt;client&lt;/font&gt;" style="rounded=0;whiteSpace=wrap;html=1;fontFamily=Helvetica;fontSize=12;fontColor=default;strokeColor=default;fillColor=#2A9D8F;strokeWidth=2;fillWeight=2;hachureGap=8;fillStyle=dots;sketch=1;opacity=60;" parent="KkZHtV6HfjBjP-QfyIvR-1" vertex="1">
                    <mxGeometry x="400" y="850" width="120" height="60" as="geometry"/>
                </mxCell>
                <mxCell id="Fyzt-uK-mrvEkcZ5hX47-30" style="edgeStyle=orthogonalEdgeStyle;html=1;entryX=0.5;entryY=0;entryDx=0;entryDy=0;fontSize=19;startArrow=classic;startFill=1;" parent="KkZHtV6HfjBjP-QfyIvR-1" source="Fyzt-uK-mrvEkcZ5hX47-27" target="Fyzt-uK-mrvEkcZ5hX47-21" edge="1">
                    <mxGeometry relative="1" as="geometry"/>
                </mxCell>
                <mxCell id="Fyzt-uK-mrvEkcZ5hX47-27" value="&lt;font style=&quot;font-size: 18px&quot;&gt;client&lt;/font&gt;" style="rounded=0;whiteSpace=wrap;html=1;fontFamily=Helvetica;fontSize=12;fontColor=default;strokeColor=default;fillColor=#2A9D8F;strokeWidth=2;fillWeight=2;hachureGap=8;fillStyle=dots;sketch=1;opacity=60;" parent="KkZHtV6HfjBjP-QfyIvR-1" vertex="1">
                    <mxGeometry x="545" y="850" width="120" height="60" as="geometry"/>
                </mxCell>
                <mxCell id="Fyzt-uK-mrvEkcZ5hX47-31" style="edgeStyle=orthogonalEdgeStyle;html=1;fontSize=19;startArrow=classic;startFill=1;" parent="KkZHtV6HfjBjP-QfyIvR-1" source="Fyzt-uK-mrvEkcZ5hX47-28" target="Fyzt-uK-mrvEkcZ5hX47-6" edge="1">
                    <mxGeometry relative="1" as="geometry"/>
                </mxCell>
                <mxCell id="Fyzt-uK-mrvEkcZ5hX47-28" value="&lt;font style=&quot;font-size: 18px&quot;&gt;client&lt;/font&gt;" style="rounded=0;whiteSpace=wrap;html=1;fontFamily=Helvetica;fontSize=12;fontColor=default;strokeColor=default;fillColor=#2A9D8F;strokeWidth=2;fillWeight=2;hachureGap=8;fillStyle=dots;sketch=1;opacity=60;" parent="KkZHtV6HfjBjP-QfyIvR-1" vertex="1">
                    <mxGeometry x="680" y="850" width="120" height="60" as="geometry"/>
                </mxCell>
                <mxCell id="qVk-_wfB0VwJsGi2b_M8-7" style="edgeStyle=orthogonalEdgeStyle;html=1;fontSize=16;startArrow=none;startFill=0;" parent="KkZHtV6HfjBjP-QfyIvR-1" source="qVk-_wfB0VwJsGi2b_M8-0" target="qVk-_wfB0VwJsGi2b_M8-3" edge="1">
                    <mxGeometry relative="1" as="geometry"/>
                </mxCell>
                <mxCell id="qVk-_wfB0VwJsGi2b_M8-0" value="readQueryFromClient" style="rounded=1;whiteSpace=wrap;html=1;strokeWidth=2;fillWeight=2;hachureGap=8;hachureAngle=45;fillColor=#E9C46A;sketch=1;fontSize=16;fillStyle=dots;opacity=60;" parent="KkZHtV6HfjBjP-QfyIvR-1" vertex="1">
                    <mxGeometry x="320" y="1390" width="160" height="60" as="geometry"/>
                </mxCell>
                <mxCell id="qVk-_wfB0VwJsGi2b_M8-15" style="edgeStyle=orthogonalEdgeStyle;html=1;entryX=0.5;entryY=0;entryDx=0;entryDy=0;fontSize=16;startArrow=none;startFill=0;" parent="KkZHtV6HfjBjP-QfyIvR-1" source="qVk-_wfB0VwJsGi2b_M8-1" target="qVk-_wfB0VwJsGi2b_M8-14" edge="1">
                    <mxGeometry relative="1" as="geometry"/>
                </mxCell>
                <mxCell id="qVk-_wfB0VwJsGi2b_M8-1" value="sendReplyToClient" style="rounded=1;whiteSpace=wrap;html=1;strokeWidth=2;fillWeight=2;hachureGap=8;hachureAngle=45;fillColor=#5FAD56;sketch=1;fontSize=16;fillStyle=dots;opacity=60;" parent="KkZHtV6HfjBjP-QfyIvR-1" vertex="1">
                    <mxGeometry x="760" y="1520" width="160" height="60" as="geometry"/>
                </mxCell>
                <mxCell id="qVk-_wfB0VwJsGi2b_M8-11" style="edgeStyle=orthogonalEdgeStyle;html=1;entryX=1;entryY=0.5;entryDx=0;entryDy=0;fontSize=16;startArrow=none;startFill=0;" parent="KkZHtV6HfjBjP-QfyIvR-1" source="qVk-_wfB0VwJsGi2b_M8-2" target="Fyzt-uK-mrvEkcZ5hX47-14" edge="1">
                    <mxGeometry relative="1" as="geometry"/>
                </mxCell>
                <mxCell id="6NB8u1fUYq3-afCTOl22-3" style="edgeStyle=orthogonalEdgeStyle;html=1;entryX=0.5;entryY=0.034;entryDx=0;entryDy=0;entryPerimeter=0;" parent="KkZHtV6HfjBjP-QfyIvR-1" source="qVk-_wfB0VwJsGi2b_M8-2" target="XV-mx9fOP7wpnLU_PU01-0" edge="1">
                    <mxGeometry relative="1" as="geometry"/>
                </mxCell>
                <mxCell id="qVk-_wfB0VwJsGi2b_M8-2" value="beforeSleep" style="rounded=1;whiteSpace=wrap;html=1;strokeWidth=2;fillWeight=2;hachureGap=8;hachureAngle=45;fillColor=#5FAD56;sketch=1;fontSize=16;fillStyle=dots;opacity=60;" parent="KkZHtV6HfjBjP-QfyIvR-1" vertex="1">
                    <mxGeometry x="760" y="1270" width="160" height="60" as="geometry"/>
                </mxCell>
                <mxCell id="qVk-_wfB0VwJsGi2b_M8-9" style="edgeStyle=orthogonalEdgeStyle;html=1;entryX=0.5;entryY=0;entryDx=0;entryDy=0;fontSize=16;startArrow=none;startFill=0;" parent="KkZHtV6HfjBjP-QfyIvR-1" source="qVk-_wfB0VwJsGi2b_M8-3" target="qVk-_wfB0VwJsGi2b_M8-4" edge="1">
                    <mxGeometry relative="1" as="geometry"/>
                </mxCell>
                <mxCell id="qVk-_wfB0VwJsGi2b_M8-3" value="processCommand" style="rounded=1;whiteSpace=wrap;html=1;strokeWidth=2;fillWeight=2;hachureGap=8;hachureAngle=45;fillColor=#E9C46A;sketch=1;fontSize=16;fillStyle=dots;opacity=60;" parent="KkZHtV6HfjBjP-QfyIvR-1" vertex="1">
                    <mxGeometry x="320" y="1500" width="160" height="60" as="geometry"/>
                </mxCell>
                <mxCell id="6NB8u1fUYq3-afCTOl22-5" style="edgeStyle=orthogonalEdgeStyle;html=1;entryX=-0.004;entryY=0.51;entryDx=0;entryDy=0;entryPerimeter=0;" parent="KkZHtV6HfjBjP-QfyIvR-1" source="qVk-_wfB0VwJsGi2b_M8-4" target="XV-mx9fOP7wpnLU_PU01-0" edge="1">
                    <mxGeometry relative="1" as="geometry"/>
                </mxCell>
                <mxCell id="qVk-_wfB0VwJsGi2b_M8-4" value="addReply" style="rounded=1;whiteSpace=wrap;html=1;strokeWidth=2;fillWeight=2;hachureGap=8;hachureAngle=45;fillColor=#E9C46A;sketch=1;fontSize=16;fillStyle=dots;opacity=60;" parent="KkZHtV6HfjBjP-QfyIvR-1" vertex="1">
                    <mxGeometry x="320" y="1610" width="160" height="60" as="geometry"/>
                </mxCell>
                <mxCell id="6NB8u1fUYq3-afCTOl22-6" style="edgeStyle=orthogonalEdgeStyle;html=1;entryX=1;entryY=0.5;entryDx=0;entryDy=0;" parent="KkZHtV6HfjBjP-QfyIvR-1" source="qVk-_wfB0VwJsGi2b_M8-14" target="Fyzt-uK-mrvEkcZ5hX47-2" edge="1">
                    <mxGeometry relative="1" as="geometry">
                        <mxPoint x="1030" y="1300" as="targetPoint"/>
                        <Array as="points">
                            <mxPoint x="1000" y="1640"/>
                            <mxPoint x="1000" y="1090"/>
                        </Array>
                    </mxGeometry>
                </mxCell>
                <mxCell id="qVk-_wfB0VwJsGi2b_M8-14" value="writeToClient" style="rounded=1;whiteSpace=wrap;html=1;strokeWidth=2;fillWeight=2;hachureGap=8;hachureAngle=45;fillColor=#5FAD56;sketch=1;fontSize=16;fillStyle=dots;opacity=60;" parent="KkZHtV6HfjBjP-QfyIvR-1" vertex="1">
                    <mxGeometry x="760" y="1610" width="160" height="60" as="geometry"/>
                </mxCell>
                <mxCell id="rrIn8BsDmMunWOERDtQa-18" style="edgeStyle=orthogonalEdgeStyle;html=1;entryX=0.5;entryY=0;entryDx=0;entryDy=0;fontSize=16;startArrow=none;startFill=0;" parent="KkZHtV6HfjBjP-QfyIvR-1" source="rrIn8BsDmMunWOERDtQa-2" target="Fyzt-uK-mrvEkcZ5hX47-14" edge="1">
                    <mxGeometry relative="1" as="geometry"/>
                </mxCell>
                <mxCell id="rrIn8BsDmMunWOERDtQa-2" value="IO事件" style="rounded=1;whiteSpace=wrap;html=1;strokeWidth=2;fillWeight=4;hachureGap=8;hachureAngle=45;fillColor=#5FAD56;sketch=1;fontSize=16;opacity=60;" parent="KkZHtV6HfjBjP-QfyIvR-1" vertex="1">
                    <mxGeometry x="470" y="1160" width="70" height="60" as="geometry"/>
                </mxCell>
                <mxCell id="rrIn8BsDmMunWOERDtQa-19" style="edgeStyle=orthogonalEdgeStyle;html=1;entryX=0.5;entryY=0;entryDx=0;entryDy=0;fontSize=16;startArrow=none;startFill=0;" parent="KkZHtV6HfjBjP-QfyIvR-1" source="rrIn8BsDmMunWOERDtQa-15" target="Fyzt-uK-mrvEkcZ5hX47-14" edge="1">
                    <mxGeometry relative="1" as="geometry"/>
                </mxCell>
                <mxCell id="rrIn8BsDmMunWOERDtQa-15" value="IO事件" style="rounded=1;whiteSpace=wrap;html=1;strokeWidth=2;fillWeight=4;hachureGap=8;hachureAngle=45;fillColor=#5FAD56;sketch=1;fontSize=16;opacity=60;" parent="KkZHtV6HfjBjP-QfyIvR-1" vertex="1">
                    <mxGeometry x="540" y="1160" width="70" height="60" as="geometry"/>
                </mxCell>
                <mxCell id="rrIn8BsDmMunWOERDtQa-20" style="edgeStyle=orthogonalEdgeStyle;html=1;entryX=0.5;entryY=0;entryDx=0;entryDy=0;fontSize=16;startArrow=none;startFill=0;" parent="KkZHtV6HfjBjP-QfyIvR-1" source="rrIn8BsDmMunWOERDtQa-16" target="Fyzt-uK-mrvEkcZ5hX47-14" edge="1">
                    <mxGeometry relative="1" as="geometry"/>
                </mxCell>
                <mxCell id="rrIn8BsDmMunWOERDtQa-16" value="IO事件" style="rounded=1;whiteSpace=wrap;html=1;strokeWidth=2;fillWeight=4;hachureGap=8;hachureAngle=45;fillColor=#5FAD56;sketch=1;fontSize=16;opacity=60;" parent="KkZHtV6HfjBjP-QfyIvR-1" vertex="1">
                    <mxGeometry x="610" y="1160" width="70" height="60" as="geometry"/>
                </mxCell>
                <mxCell id="rrIn8BsDmMunWOERDtQa-22" style="edgeStyle=orthogonalEdgeStyle;html=1;entryX=0.5;entryY=0;entryDx=0;entryDy=0;fontSize=16;startArrow=none;startFill=0;" parent="KkZHtV6HfjBjP-QfyIvR-1" source="rrIn8BsDmMunWOERDtQa-9" target="Fyzt-uK-mrvEkcZ5hX47-14" edge="1">
                    <mxGeometry relative="1" as="geometry"/>
                </mxCell>
                <mxCell id="6NB8u1fUYq3-afCTOl22-10" style="edgeStyle=orthogonalEdgeStyle;html=1;entryX=0.5;entryY=0;entryDx=0;entryDy=0;" parent="KkZHtV6HfjBjP-QfyIvR-1" source="rrIn8BsDmMunWOERDtQa-17" target="Fyzt-uK-mrvEkcZ5hX47-14" edge="1">
                    <mxGeometry relative="1" as="geometry"/>
                </mxCell>
                <mxCell id="rrIn8BsDmMunWOERDtQa-17" value="IO事件" style="rounded=1;whiteSpace=wrap;html=1;strokeWidth=2;fillWeight=4;hachureGap=8;hachureAngle=45;fillColor=#5FAD56;sketch=1;fontSize=16;opacity=60;" parent="KkZHtV6HfjBjP-QfyIvR-1" vertex="1">
                    <mxGeometry x="680" y="1160" width="70" height="60" as="geometry"/>
                </mxCell>
                <mxCell id="rrIn8BsDmMunWOERDtQa-27" value="主线程" style="text;html=1;align=center;verticalAlign=middle;resizable=0;points=[];autosize=1;strokeColor=none;fillColor=none;fontSize=16;" parent="KkZHtV6HfjBjP-QfyIvR-1" vertex="1">
                    <mxGeometry x="1000" y="1050" width="60" height="20" as="geometry"/>
                </mxCell>
                <mxCell id="6NB8u1fUYq3-afCTOl22-4" style="edgeStyle=orthogonalEdgeStyle;html=1;" parent="KkZHtV6HfjBjP-QfyIvR-1" source="XV-mx9fOP7wpnLU_PU01-0" target="qVk-_wfB0VwJsGi2b_M8-1" edge="1">
                    <mxGeometry relative="1" as="geometry"/>
                </mxCell>
                <mxCell id="XV-mx9fOP7wpnLU_PU01-0" value="" style="verticalLabelPosition=bottom;verticalAlign=top;html=1;shape=mxgraph.basic.rect;fillColor2=none;strokeWidth=1;size=20;indent=5;fillColor=none;dashed=1;" parent="KkZHtV6HfjBjP-QfyIvR-1" vertex="1">
                    <mxGeometry x="715" y="1355" width="250" height="145" as="geometry"/>
                </mxCell>
                <mxCell id="PERxdkFZTRLZcZZAvJa3-0" value="&lt;font style=&quot;font-size: 18px&quot;&gt;client&lt;/font&gt;" style="rounded=0;whiteSpace=wrap;html=1;fontFamily=Helvetica;fontSize=12;fontColor=default;strokeColor=default;fillColor=#2A9D8F;strokeWidth=2;fillWeight=2;hachureGap=8;fillStyle=dots;sketch=1;opacity=60;direction=south;" parent="KkZHtV6HfjBjP-QfyIvR-1" vertex="1">
                    <mxGeometry x="745" y="1410" width="70" height="70" as="geometry"/>
                </mxCell>
                <mxCell id="PERxdkFZTRLZcZZAvJa3-1" value="&lt;font style=&quot;font-size: 18px&quot;&gt;client&lt;/font&gt;" style="rounded=0;whiteSpace=wrap;html=1;fontFamily=Helvetica;fontSize=12;fontColor=default;strokeColor=default;fillColor=#2A9D8F;strokeWidth=2;fillWeight=2;hachureGap=8;fillStyle=dots;sketch=1;opacity=60;direction=south;" parent="KkZHtV6HfjBjP-QfyIvR-1" vertex="1">
                    <mxGeometry x="865" y="1410" width="70" height="70" as="geometry"/>
                </mxCell>
                <mxCell id="6NB8u1fUYq3-afCTOl22-0" value="clients_pending_write" style="text;html=1;align=center;verticalAlign=middle;resizable=0;points=[];autosize=1;strokeColor=none;fillColor=none;fontSize=18;" parent="KkZHtV6HfjBjP-QfyIvR-1" vertex="1">
                    <mxGeometry x="745" y="1370" width="190" height="30" as="geometry"/>
                </mxCell>
            </root>
        </mxGraphModel>
    </diagram>
    <diagram id="D5WNsF7SjQdevUL5bSLl" name="multi">
        <mxGraphModel dx="898" dy="680" grid="1" gridSize="10" guides="1" tooltips="1" connect="1" arrows="1" fold="1" page="1" pageScale="1" pageWidth="3300" pageHeight="4681" math="0" shadow="0">
            <root>
                <mxCell id="q_E4oddG3_Drv03ctLGm-0"/>
                <mxCell id="q_E4oddG3_Drv03ctLGm-1" parent="q_E4oddG3_Drv03ctLGm-0"/>
                <mxCell id="BRGyFOxaYjBVbTZo5GIt-39" value="" style="verticalLabelPosition=bottom;verticalAlign=top;html=1;shape=mxgraph.basic.rect;fillColor2=none;strokeWidth=1;size=20;indent=5;fillColor=none;dashed=1;" parent="q_E4oddG3_Drv03ctLGm-1" vertex="1">
                    <mxGeometry x="610" y="1000" width="740" height="850" as="geometry"/>
                </mxCell>
                <mxCell id="SyPFVVuLvSQm0flZvW_D-65" value="" style="verticalLabelPosition=bottom;verticalAlign=top;html=1;shape=mxgraph.basic.rect;fillColor2=none;strokeWidth=1;size=20;indent=5;fillColor=none;dashed=1;" parent="q_E4oddG3_Drv03ctLGm-1" vertex="1">
                    <mxGeometry x="990" y="1510" width="250" height="145" as="geometry"/>
                </mxCell>
                <mxCell id="BRGyFOxaYjBVbTZo5GIt-9" value="" style="verticalLabelPosition=bottom;verticalAlign=top;html=1;shape=mxgraph.basic.rect;fillColor2=none;strokeWidth=1;size=20;indent=5;fillColor=none;dashed=1;" parent="q_E4oddG3_Drv03ctLGm-1" vertex="1">
                    <mxGeometry x="720" y="1510" width="250" height="145" as="geometry"/>
                </mxCell>
                <mxCell id="BRGyFOxaYjBVbTZo5GIt-26" style="edgeStyle=orthogonalEdgeStyle;html=1;entryX=0.5;entryY=0;entryDx=0;entryDy=0;fontSize=18;startArrow=none;startFill=0;" parent="q_E4oddG3_Drv03ctLGm-1" source="BRGyFOxaYjBVbTZo5GIt-9" target="phtf48tDKZxFoqqDGEo_-33" edge="1">
                    <mxGeometry relative="1" as="geometry"/>
                </mxCell>
                <mxCell id="SyPFVVuLvSQm0flZvW_D-33" value="" style="verticalLabelPosition=bottom;verticalAlign=top;html=1;shape=mxgraph.basic.rect;fillColor2=none;strokeWidth=1;size=20;indent=5;fillColor=none;dashed=1;" parent="q_E4oddG3_Drv03ctLGm-1" vertex="1">
                    <mxGeometry x="620" y="1210" width="200" height="230" as="geometry"/>
                </mxCell>
                <mxCell id="BRGyFOxaYjBVbTZo5GIt-42" style="edgeStyle=orthogonalEdgeStyle;html=1;entryX=1;entryY=0.5;entryDx=0;entryDy=0;fontSize=18;startArrow=none;startFill=0;" parent="q_E4oddG3_Drv03ctLGm-1" source="phtf48tDKZxFoqqDGEo_-2" target="phtf48tDKZxFoqqDGEo_-7" edge="1">
                    <mxGeometry relative="1" as="geometry"/>
                </mxCell>
                <mxCell id="phtf48tDKZxFoqqDGEo_-2" value="" style="verticalLabelPosition=bottom;verticalAlign=top;html=1;shape=mxgraph.basic.rect;fillColor2=none;strokeWidth=1;size=20;indent=5;fillColor=none;dashed=1;" parent="q_E4oddG3_Drv03ctLGm-1" vertex="1">
                    <mxGeometry x="1130" y="1210" width="200" height="250" as="geometry"/>
                </mxCell>
                <mxCell id="phtf48tDKZxFoqqDGEo_-3" style="edgeStyle=orthogonalEdgeStyle;html=1;entryX=0.5;entryY=0;entryDx=0;entryDy=0;fontSize=16;startArrow=none;startFill=0;" parent="q_E4oddG3_Drv03ctLGm-1" source="phtf48tDKZxFoqqDGEo_-7" target="phtf48tDKZxFoqqDGEo_-38" edge="1">
                    <mxGeometry relative="1" as="geometry"/>
                </mxCell>
                <mxCell id="phtf48tDKZxFoqqDGEo_-4" style="edgeStyle=orthogonalEdgeStyle;html=1;entryX=0.5;entryY=0;entryDx=0;entryDy=0;fontSize=16;startArrow=none;startFill=0;" parent="q_E4oddG3_Drv03ctLGm-1" source="phtf48tDKZxFoqqDGEo_-7" target="phtf48tDKZxFoqqDGEo_-44" edge="1">
                    <mxGeometry relative="1" as="geometry"/>
                </mxCell>
                <mxCell id="phtf48tDKZxFoqqDGEo_-5" style="edgeStyle=orthogonalEdgeStyle;html=1;entryX=0.5;entryY=0;entryDx=0;entryDy=0;fontSize=16;startArrow=none;startFill=0;" parent="q_E4oddG3_Drv03ctLGm-1" source="phtf48tDKZxFoqqDGEo_-7" target="phtf48tDKZxFoqqDGEo_-40" edge="1">
                    <mxGeometry relative="1" as="geometry"/>
                </mxCell>
                <mxCell id="phtf48tDKZxFoqqDGEo_-6" style="edgeStyle=orthogonalEdgeStyle;html=1;entryX=0.5;entryY=0;entryDx=0;entryDy=0;fontSize=16;startArrow=none;startFill=0;" parent="q_E4oddG3_Drv03ctLGm-1" source="phtf48tDKZxFoqqDGEo_-7" target="phtf48tDKZxFoqqDGEo_-42" edge="1">
                    <mxGeometry relative="1" as="geometry"/>
                </mxCell>
                <mxCell id="phtf48tDKZxFoqqDGEo_-7" value="&lt;font style=&quot;font-size: 19px&quot;&gt;I/O&lt;br&gt;Multiplexing&lt;/font&gt;" style="rounded=1;whiteSpace=wrap;html=1;strokeWidth=2;fillWeight=4;hachureGap=8;hachureAngle=45;fillColor=#5FAD56;sketch=1;fontSize=16;opacity=60;" parent="q_E4oddG3_Drv03ctLGm-1" vertex="1">
                    <mxGeometry x="800" y="1020" width="330" height="60" as="geometry"/>
                </mxCell>
                <mxCell id="phtf48tDKZxFoqqDGEo_-8" style="edgeStyle=orthogonalEdgeStyle;html=1;entryX=0.5;entryY=0;entryDx=0;entryDy=0;fontSize=25;startArrow=classic;startFill=1;" parent="q_E4oddG3_Drv03ctLGm-1" source="phtf48tDKZxFoqqDGEo_-9" target="phtf48tDKZxFoqqDGEo_-7" edge="1">
                    <mxGeometry relative="1" as="geometry">
                        <Array as="points">
                            <mxPoint x="830" y="990"/>
                            <mxPoint x="965" y="990"/>
                        </Array>
                    </mxGeometry>
                </mxCell>
                <mxCell id="phtf48tDKZxFoqqDGEo_-9" value="&lt;font style=&quot;font-size: 18px&quot;&gt;socket&lt;/font&gt;" style="ellipse;whiteSpace=wrap;html=1;strokeWidth=2;fillWeight=2;hachureGap=8;fillColor=#E9C46A;fillStyle=dots;sketch=1;fontSize=16;opacity=60;" parent="q_E4oddG3_Drv03ctLGm-1" vertex="1">
                    <mxGeometry x="770" y="910" width="120" height="60" as="geometry"/>
                </mxCell>
                <mxCell id="phtf48tDKZxFoqqDGEo_-10" style="edgeStyle=orthogonalEdgeStyle;html=1;entryX=0.5;entryY=0;entryDx=0;entryDy=0;fontSize=18;exitX=0.5;exitY=1;exitDx=0;exitDy=0;startArrow=classic;startFill=1;" parent="q_E4oddG3_Drv03ctLGm-1" source="phtf48tDKZxFoqqDGEo_-11" target="phtf48tDKZxFoqqDGEo_-7" edge="1">
                    <mxGeometry relative="1" as="geometry">
                        <Array as="points">
                            <mxPoint x="1100" y="990"/>
                            <mxPoint x="965" y="990"/>
                        </Array>
                    </mxGeometry>
                </mxCell>
                <mxCell id="phtf48tDKZxFoqqDGEo_-11" value="&lt;font style=&quot;font-size: 18px&quot;&gt;socket&lt;/font&gt;" style="ellipse;whiteSpace=wrap;html=1;strokeWidth=2;fillWeight=2;hachureGap=8;fillColor=#E9C46A;fillStyle=dots;sketch=1;fontSize=16;opacity=60;" parent="q_E4oddG3_Drv03ctLGm-1" vertex="1">
                    <mxGeometry x="1040" y="910" width="120" height="60" as="geometry"/>
                </mxCell>
                <mxCell id="phtf48tDKZxFoqqDGEo_-12" style="edgeStyle=orthogonalEdgeStyle;html=1;fontSize=16;startArrow=none;startFill=0;" parent="q_E4oddG3_Drv03ctLGm-1" source="phtf48tDKZxFoqqDGEo_-13" target="phtf48tDKZxFoqqDGEo_-15" edge="1">
                    <mxGeometry relative="1" as="geometry"/>
                </mxCell>
                <mxCell id="phtf48tDKZxFoqqDGEo_-13" value="&lt;font style=&quot;font-size: 18px&quot;&gt;aeApiPoll&lt;/font&gt;" style="rounded=1;whiteSpace=wrap;html=1;strokeWidth=2;fillWeight=4;hachureGap=8;hachureAngle=45;fillColor=#5FAD56;sketch=1;fontSize=16;opacity=60;" parent="q_E4oddG3_Drv03ctLGm-1" vertex="1">
                    <mxGeometry x="890" y="1230" width="150" height="60" as="geometry"/>
                </mxCell>
                <mxCell id="phtf48tDKZxFoqqDGEo_-14" style="edgeStyle=orthogonalEdgeStyle;html=1;entryX=0.5;entryY=0;entryDx=0;entryDy=0;fontSize=16;startArrow=none;startFill=0;" parent="q_E4oddG3_Drv03ctLGm-1" source="phtf48tDKZxFoqqDGEo_-15" target="phtf48tDKZxFoqqDGEo_-25" edge="1">
                    <mxGeometry relative="1" as="geometry"/>
                </mxCell>
                <mxCell id="phtf48tDKZxFoqqDGEo_-15" value="acceptTcpHandler" style="rounded=1;whiteSpace=wrap;html=1;strokeWidth=2;fillWeight=2;hachureGap=8;hachureAngle=45;fillColor=#E9C46A;sketch=1;fontSize=16;fillStyle=dots;opacity=60;" parent="q_E4oddG3_Drv03ctLGm-1" vertex="1">
                    <mxGeometry x="640" y="1230" width="160" height="60" as="geometry"/>
                </mxCell>
                <mxCell id="phtf48tDKZxFoqqDGEo_-16" style="edgeStyle=orthogonalEdgeStyle;html=1;entryX=0.5;entryY=0;entryDx=0;entryDy=0;fontSize=18;startArrow=classic;startFill=1;" parent="q_E4oddG3_Drv03ctLGm-1" source="phtf48tDKZxFoqqDGEo_-17" target="phtf48tDKZxFoqqDGEo_-7" edge="1">
                    <mxGeometry relative="1" as="geometry"/>
                </mxCell>
                <mxCell id="phtf48tDKZxFoqqDGEo_-17" value="&lt;font style=&quot;font-size: 18px&quot;&gt;socket&lt;/font&gt;" style="ellipse;whiteSpace=wrap;html=1;strokeWidth=2;fillWeight=2;hachureGap=8;fillColor=#E9C46A;fillStyle=dots;sketch=1;fontSize=16;opacity=60;" parent="q_E4oddG3_Drv03ctLGm-1" vertex="1">
                    <mxGeometry x="905" y="910" width="120" height="60" as="geometry"/>
                </mxCell>
                <mxCell id="phtf48tDKZxFoqqDGEo_-18" style="edgeStyle=orthogonalEdgeStyle;html=1;entryX=0.425;entryY=0;entryDx=0;entryDy=0;entryPerimeter=0;fontSize=19;startArrow=classic;startFill=1;" parent="q_E4oddG3_Drv03ctLGm-1" source="phtf48tDKZxFoqqDGEo_-19" target="phtf48tDKZxFoqqDGEo_-9" edge="1">
                    <mxGeometry relative="1" as="geometry"/>
                </mxCell>
                <mxCell id="phtf48tDKZxFoqqDGEo_-19" value="&lt;font style=&quot;font-size: 18px&quot;&gt;client&lt;/font&gt;" style="rounded=0;whiteSpace=wrap;html=1;fontFamily=Helvetica;fontSize=12;fontColor=default;strokeColor=default;fillColor=#2A9D8F;strokeWidth=2;fillWeight=2;hachureGap=8;fillStyle=dots;sketch=1;opacity=60;" parent="q_E4oddG3_Drv03ctLGm-1" vertex="1">
                    <mxGeometry x="760" y="810" width="120" height="60" as="geometry"/>
                </mxCell>
                <mxCell id="phtf48tDKZxFoqqDGEo_-20" style="edgeStyle=orthogonalEdgeStyle;html=1;entryX=0.5;entryY=0;entryDx=0;entryDy=0;fontSize=19;startArrow=classic;startFill=1;" parent="q_E4oddG3_Drv03ctLGm-1" source="phtf48tDKZxFoqqDGEo_-21" target="phtf48tDKZxFoqqDGEo_-17" edge="1">
                    <mxGeometry relative="1" as="geometry"/>
                </mxCell>
                <mxCell id="phtf48tDKZxFoqqDGEo_-21" value="&lt;font style=&quot;font-size: 18px&quot;&gt;client&lt;/font&gt;" style="rounded=0;whiteSpace=wrap;html=1;fontFamily=Helvetica;fontSize=12;fontColor=default;strokeColor=default;fillColor=#2A9D8F;strokeWidth=2;fillWeight=2;hachureGap=8;fillStyle=dots;sketch=1;opacity=60;" parent="q_E4oddG3_Drv03ctLGm-1" vertex="1">
                    <mxGeometry x="905" y="810" width="120" height="60" as="geometry"/>
                </mxCell>
                <mxCell id="phtf48tDKZxFoqqDGEo_-22" style="edgeStyle=orthogonalEdgeStyle;html=1;fontSize=19;startArrow=classic;startFill=1;" parent="q_E4oddG3_Drv03ctLGm-1" source="phtf48tDKZxFoqqDGEo_-23" target="phtf48tDKZxFoqqDGEo_-11" edge="1">
                    <mxGeometry relative="1" as="geometry"/>
                </mxCell>
                <mxCell id="phtf48tDKZxFoqqDGEo_-23" value="&lt;font style=&quot;font-size: 18px&quot;&gt;client&lt;/font&gt;" style="rounded=0;whiteSpace=wrap;html=1;fontFamily=Helvetica;fontSize=12;fontColor=default;strokeColor=default;fillColor=#2A9D8F;strokeWidth=2;fillWeight=2;hachureGap=8;fillStyle=dots;sketch=1;opacity=60;" parent="q_E4oddG3_Drv03ctLGm-1" vertex="1">
                    <mxGeometry x="1040" y="810" width="120" height="60" as="geometry"/>
                </mxCell>
                <mxCell id="0" style="edgeStyle=orthogonalEdgeStyle;html=1;entryX=0.467;entryY=-0.081;entryDx=0;entryDy=0;entryPerimeter=0;" parent="q_E4oddG3_Drv03ctLGm-1" source="phtf48tDKZxFoqqDGEo_-25" target="BRGyFOxaYjBVbTZo5GIt-10" edge="1">
                    <mxGeometry relative="1" as="geometry"/>
                </mxCell>
                <mxCell id="phtf48tDKZxFoqqDGEo_-25" value="readQueryFromClient" style="rounded=1;whiteSpace=wrap;html=1;strokeWidth=2;fillWeight=2;hachureGap=8;hachureAngle=45;fillColor=#E9C46A;sketch=1;fontSize=16;fillStyle=dots;opacity=60;" parent="q_E4oddG3_Drv03ctLGm-1" vertex="1">
                    <mxGeometry x="640" y="1347.5" width="160" height="60" as="geometry"/>
                </mxCell>
                <mxCell id="phtf48tDKZxFoqqDGEo_-28" style="edgeStyle=orthogonalEdgeStyle;html=1;entryX=1;entryY=0.5;entryDx=0;entryDy=0;fontSize=16;startArrow=none;startFill=0;" parent="q_E4oddG3_Drv03ctLGm-1" source="phtf48tDKZxFoqqDGEo_-31" target="phtf48tDKZxFoqqDGEo_-13" edge="1">
                    <mxGeometry relative="1" as="geometry"/>
                </mxCell>
                <mxCell id="SyPFVVuLvSQm0flZvW_D-68" style="edgeStyle=orthogonalEdgeStyle;html=1;entryX=0.5;entryY=0;entryDx=0;entryDy=0;fontSize=18;startArrow=none;startFill=0;" parent="q_E4oddG3_Drv03ctLGm-1" source="phtf48tDKZxFoqqDGEo_-31" target="SyPFVVuLvSQm0flZvW_D-18" edge="1">
                    <mxGeometry relative="1" as="geometry"/>
                </mxCell>
                <mxCell id="BRGyFOxaYjBVbTZo5GIt-12" style="edgeStyle=orthogonalEdgeStyle;html=1;entryX=0.468;entryY=0.016;entryDx=0;entryDy=0;entryPerimeter=0;fontSize=18;startArrow=none;startFill=0;exitX=0.5;exitY=1;exitDx=0;exitDy=0;" parent="q_E4oddG3_Drv03ctLGm-1" source="phtf48tDKZxFoqqDGEo_-31" target="BRGyFOxaYjBVbTZo5GIt-9" edge="1">
                    <mxGeometry relative="1" as="geometry">
                        <mxPoint x="1250" y="1300" as="sourcePoint"/>
                        <Array as="points">
                            <mxPoint x="1230" y="1310"/>
                            <mxPoint x="837" y="1310"/>
                        </Array>
                    </mxGeometry>
                </mxCell>
                <mxCell id="BRGyFOxaYjBVbTZo5GIt-33" style="edgeStyle=orthogonalEdgeStyle;html=1;entryX=0.445;entryY=-0.067;entryDx=0;entryDy=0;entryPerimeter=0;fontSize=18;startArrow=none;startFill=0;" parent="q_E4oddG3_Drv03ctLGm-1" source="phtf48tDKZxFoqqDGEo_-31" target="SyPFVVuLvSQm0flZvW_D-66" edge="1">
                    <mxGeometry relative="1" as="geometry">
                        <Array as="points">
                            <mxPoint x="1230" y="1310"/>
                            <mxPoint x="1105" y="1310"/>
                        </Array>
                    </mxGeometry>
                </mxCell>
                <mxCell id="phtf48tDKZxFoqqDGEo_-31" value="beforeSleep" style="rounded=1;whiteSpace=wrap;html=1;strokeWidth=2;fillWeight=2;hachureGap=8;hachureAngle=45;fillColor=#5FAD56;sketch=1;fontSize=16;fillStyle=dots;opacity=60;" parent="q_E4oddG3_Drv03ctLGm-1" vertex="1">
                    <mxGeometry x="1150" y="1230" width="160" height="60" as="geometry"/>
                </mxCell>
                <mxCell id="phtf48tDKZxFoqqDGEo_-32" style="edgeStyle=orthogonalEdgeStyle;html=1;entryX=0.5;entryY=0;entryDx=0;entryDy=0;fontSize=16;startArrow=none;startFill=0;" parent="q_E4oddG3_Drv03ctLGm-1" source="phtf48tDKZxFoqqDGEo_-33" target="phtf48tDKZxFoqqDGEo_-35" edge="1">
                    <mxGeometry relative="1" as="geometry"/>
                </mxCell>
                <mxCell id="BRGyFOxaYjBVbTZo5GIt-11" style="edgeStyle=orthogonalEdgeStyle;html=1;fontSize=18;startArrow=none;startFill=0;" parent="q_E4oddG3_Drv03ctLGm-1" source="phtf48tDKZxFoqqDGEo_-33" target="phtf48tDKZxFoqqDGEo_-35" edge="1">
                    <mxGeometry relative="1" as="geometry"/>
                </mxCell>
                <mxCell id="phtf48tDKZxFoqqDGEo_-33" value="processCommand" style="rounded=1;whiteSpace=wrap;html=1;strokeWidth=2;fillWeight=2;hachureGap=8;hachureAngle=45;fillColor=#E9C46A;sketch=1;fontSize=16;fillStyle=dots;opacity=60;" parent="q_E4oddG3_Drv03ctLGm-1" vertex="1">
                    <mxGeometry x="765" y="1680" width="160" height="60" as="geometry"/>
                </mxCell>
                <mxCell id="BRGyFOxaYjBVbTZo5GIt-36" style="edgeStyle=orthogonalEdgeStyle;html=1;entryX=0.51;entryY=1.021;entryDx=0;entryDy=0;entryPerimeter=0;fontSize=18;startArrow=none;startFill=0;" parent="q_E4oddG3_Drv03ctLGm-1" source="phtf48tDKZxFoqqDGEo_-35" target="SyPFVVuLvSQm0flZvW_D-65" edge="1">
                    <mxGeometry relative="1" as="geometry"/>
                </mxCell>
                <mxCell id="phtf48tDKZxFoqqDGEo_-35" value="addReply" style="rounded=1;whiteSpace=wrap;html=1;strokeWidth=2;fillWeight=2;hachureGap=8;hachureAngle=45;fillColor=#E9C46A;sketch=1;fontSize=16;fillStyle=dots;opacity=60;" parent="q_E4oddG3_Drv03ctLGm-1" vertex="1">
                    <mxGeometry x="765" y="1770" width="160" height="60" as="geometry"/>
                </mxCell>
                <mxCell id="SyPFVVuLvSQm0flZvW_D-28" style="edgeStyle=orthogonalEdgeStyle;html=1;entryX=1;entryY=0.5;entryDx=0;entryDy=0;fontSize=18;startArrow=none;startFill=0;" parent="q_E4oddG3_Drv03ctLGm-1" source="phtf48tDKZxFoqqDGEo_-36" target="phtf48tDKZxFoqqDGEo_-7" edge="1">
                    <mxGeometry relative="1" as="geometry"/>
                </mxCell>
                <mxCell id="phtf48tDKZxFoqqDGEo_-36" value="writeToClient" style="rounded=1;whiteSpace=wrap;html=1;strokeWidth=2;fillWeight=2;hachureGap=8;hachureAngle=45;fillColor=#5FAD56;sketch=1;fontSize=16;fillStyle=dots;opacity=60;" parent="q_E4oddG3_Drv03ctLGm-1" vertex="1">
                    <mxGeometry x="1385" y="1020" width="160" height="60" as="geometry"/>
                </mxCell>
                <mxCell id="phtf48tDKZxFoqqDGEo_-37" style="edgeStyle=orthogonalEdgeStyle;html=1;entryX=0.5;entryY=0;entryDx=0;entryDy=0;fontSize=16;startArrow=none;startFill=0;" parent="q_E4oddG3_Drv03ctLGm-1" source="phtf48tDKZxFoqqDGEo_-38" target="phtf48tDKZxFoqqDGEo_-13" edge="1">
                    <mxGeometry relative="1" as="geometry"/>
                </mxCell>
                <mxCell id="phtf48tDKZxFoqqDGEo_-38" value="IO事件" style="rounded=1;whiteSpace=wrap;html=1;strokeWidth=2;fillWeight=4;hachureGap=8;hachureAngle=45;fillColor=#5FAD56;sketch=1;fontSize=16;opacity=60;" parent="q_E4oddG3_Drv03ctLGm-1" vertex="1">
                    <mxGeometry x="830" y="1120" width="70" height="60" as="geometry"/>
                </mxCell>
                <mxCell id="phtf48tDKZxFoqqDGEo_-39" style="edgeStyle=orthogonalEdgeStyle;html=1;entryX=0.5;entryY=0;entryDx=0;entryDy=0;fontSize=16;startArrow=none;startFill=0;" parent="q_E4oddG3_Drv03ctLGm-1" source="phtf48tDKZxFoqqDGEo_-40" target="phtf48tDKZxFoqqDGEo_-13" edge="1">
                    <mxGeometry relative="1" as="geometry"/>
                </mxCell>
                <mxCell id="phtf48tDKZxFoqqDGEo_-40" value="IO事件" style="rounded=1;whiteSpace=wrap;html=1;strokeWidth=2;fillWeight=4;hachureGap=8;hachureAngle=45;fillColor=#5FAD56;sketch=1;fontSize=16;opacity=60;" parent="q_E4oddG3_Drv03ctLGm-1" vertex="1">
                    <mxGeometry x="900" y="1120" width="70" height="60" as="geometry"/>
                </mxCell>
                <mxCell id="phtf48tDKZxFoqqDGEo_-41" style="edgeStyle=orthogonalEdgeStyle;html=1;entryX=0.5;entryY=0;entryDx=0;entryDy=0;fontSize=16;startArrow=none;startFill=0;" parent="q_E4oddG3_Drv03ctLGm-1" source="phtf48tDKZxFoqqDGEo_-42" target="phtf48tDKZxFoqqDGEo_-13" edge="1">
                    <mxGeometry relative="1" as="geometry"/>
                </mxCell>
                <mxCell id="phtf48tDKZxFoqqDGEo_-42" value="IO事件" style="rounded=1;whiteSpace=wrap;html=1;strokeWidth=2;fillWeight=4;hachureGap=8;hachureAngle=45;fillColor=#5FAD56;sketch=1;fontSize=16;opacity=60;" parent="q_E4oddG3_Drv03ctLGm-1" vertex="1">
                    <mxGeometry x="970" y="1120" width="70" height="60" as="geometry"/>
                </mxCell>
                <mxCell id="phtf48tDKZxFoqqDGEo_-43" style="edgeStyle=orthogonalEdgeStyle;html=1;entryX=0.5;entryY=0;entryDx=0;entryDy=0;fontSize=16;startArrow=none;startFill=0;" parent="q_E4oddG3_Drv03ctLGm-1" source="phtf48tDKZxFoqqDGEo_-44" target="phtf48tDKZxFoqqDGEo_-13" edge="1">
                    <mxGeometry relative="1" as="geometry"/>
                </mxCell>
                <mxCell id="phtf48tDKZxFoqqDGEo_-44" value="IO事件" style="rounded=1;whiteSpace=wrap;html=1;strokeWidth=2;fillWeight=4;hachureGap=8;hachureAngle=45;fillColor=#5FAD56;sketch=1;fontSize=16;opacity=60;" parent="q_E4oddG3_Drv03ctLGm-1" vertex="1">
                    <mxGeometry x="1040" y="1120" width="70" height="60" as="geometry"/>
                </mxCell>
                <mxCell id="phtf48tDKZxFoqqDGEo_-45" value="主线程" style="text;html=1;align=center;verticalAlign=middle;resizable=0;points=[];autosize=1;strokeColor=none;fillColor=none;fontSize=16;" parent="q_E4oddG3_Drv03ctLGm-1" vertex="1">
                    <mxGeometry x="1290" y="1010" width="60" height="20" as="geometry"/>
                </mxCell>
                <mxCell id="SyPFVVuLvSQm0flZvW_D-18" value="sendReplyToClient" style="rounded=1;whiteSpace=wrap;html=1;strokeWidth=2;fillWeight=2;hachureGap=8;hachureAngle=45;fillColor=#5FAD56;sketch=1;fontSize=16;fillStyle=dots;opacity=60;" parent="q_E4oddG3_Drv03ctLGm-1" vertex="1">
                    <mxGeometry x="1150" y="1360" width="160" height="60" as="geometry"/>
                </mxCell>
                <mxCell id="SyPFVVuLvSQm0flZvW_D-32" style="edgeStyle=orthogonalEdgeStyle;html=1;entryX=0;entryY=0.5;entryDx=0;entryDy=0;fontSize=18;startArrow=classic;startFill=1;" parent="q_E4oddG3_Drv03ctLGm-1" source="SyPFVVuLvSQm0flZvW_D-29" target="phtf48tDKZxFoqqDGEo_-7" edge="1">
                    <mxGeometry relative="1" as="geometry"/>
                </mxCell>
                <mxCell id="SyPFVVuLvSQm0flZvW_D-29" value="readQueryFromClient" style="rounded=1;whiteSpace=wrap;html=1;strokeWidth=2;fillWeight=2;hachureGap=8;hachureAngle=45;fillColor=#E9C46A;sketch=1;fontSize=16;fillStyle=dots;opacity=60;" parent="q_E4oddG3_Drv03ctLGm-1" vertex="1">
                    <mxGeometry x="420" y="1020" width="160" height="60" as="geometry"/>
                </mxCell>
                <mxCell id="SyPFVVuLvSQm0flZvW_D-71" style="edgeStyle=orthogonalEdgeStyle;html=1;entryX=0.5;entryY=1;entryDx=0;entryDy=0;fontSize=18;startArrow=none;startFill=0;" parent="q_E4oddG3_Drv03ctLGm-1" source="SyPFVVuLvSQm0flZvW_D-59" target="phtf48tDKZxFoqqDGEo_-36" edge="1">
                    <mxGeometry relative="1" as="geometry"/>
                </mxCell>
                <mxCell id="SyPFVVuLvSQm0flZvW_D-59" value="&lt;font style=&quot;font-size: 18px&quot;&gt;I/O&lt;br&gt;Thread&lt;br&gt;&lt;/font&gt;" style="rounded=1;whiteSpace=wrap;html=1;strokeWidth=2;fillWeight=4;hachureGap=8;hachureAngle=45;fillColor=#E63946;sketch=1;fontSize=16;opacity=60;fillStyle=dashed;direction=south;" parent="q_E4oddG3_Drv03ctLGm-1" vertex="1">
                    <mxGeometry x="1480" y="1210" width="90" height="70" as="geometry"/>
                </mxCell>
                <mxCell id="BRGyFOxaYjBVbTZo5GIt-34" style="edgeStyle=orthogonalEdgeStyle;html=1;entryX=1;entryY=0.5;entryDx=0;entryDy=0;fontSize=18;startArrow=none;startFill=0;" parent="q_E4oddG3_Drv03ctLGm-1" source="SyPFVVuLvSQm0flZvW_D-61" target="SyPFVVuLvSQm0flZvW_D-62" edge="1">
                    <mxGeometry relative="1" as="geometry">
                        <Array as="points">
                            <mxPoint x="1055" y="1640"/>
                            <mxPoint x="1405" y="1640"/>
                        </Array>
                    </mxGeometry>
                </mxCell>
                <mxCell id="SyPFVVuLvSQm0flZvW_D-61" value="&lt;font style=&quot;font-size: 18px&quot;&gt;client&lt;/font&gt;" style="rounded=0;whiteSpace=wrap;html=1;fontFamily=Helvetica;fontSize=12;fontColor=default;strokeColor=default;fillColor=#2A9D8F;strokeWidth=2;fillWeight=2;hachureGap=8;fillStyle=dots;sketch=1;opacity=60;direction=south;" parent="q_E4oddG3_Drv03ctLGm-1" vertex="1">
                    <mxGeometry x="1020" y="1558.75" width="70" height="70" as="geometry"/>
                </mxCell>
                <mxCell id="SyPFVVuLvSQm0flZvW_D-70" style="edgeStyle=orthogonalEdgeStyle;html=1;fontSize=18;startArrow=none;startFill=0;" parent="q_E4oddG3_Drv03ctLGm-1" source="SyPFVVuLvSQm0flZvW_D-62" target="phtf48tDKZxFoqqDGEo_-36" edge="1">
                    <mxGeometry relative="1" as="geometry"/>
                </mxCell>
                <mxCell id="SyPFVVuLvSQm0flZvW_D-62" value="&lt;font style=&quot;font-size: 18px&quot;&gt;I/O&lt;br&gt;Thread&lt;br&gt;&lt;/font&gt;" style="rounded=1;whiteSpace=wrap;html=1;strokeWidth=2;fillWeight=4;hachureGap=8;hachureAngle=45;fillColor=#E63946;sketch=1;fontSize=16;opacity=60;fillStyle=dashed;direction=south;" parent="q_E4oddG3_Drv03ctLGm-1" vertex="1">
                    <mxGeometry x="1360" y="1210" width="90" height="70" as="geometry"/>
                </mxCell>
                <mxCell id="BRGyFOxaYjBVbTZo5GIt-35" style="edgeStyle=orthogonalEdgeStyle;html=1;fontSize=18;startArrow=none;startFill=0;" parent="q_E4oddG3_Drv03ctLGm-1" source="SyPFVVuLvSQm0flZvW_D-64" target="SyPFVVuLvSQm0flZvW_D-59" edge="1">
                    <mxGeometry relative="1" as="geometry">
                        <Array as="points">
                            <mxPoint x="1175" y="1640"/>
                            <mxPoint x="1525" y="1640"/>
                        </Array>
                    </mxGeometry>
                </mxCell>
                <mxCell id="SyPFVVuLvSQm0flZvW_D-64" value="&lt;font style=&quot;font-size: 18px&quot;&gt;client&lt;/font&gt;" style="rounded=0;whiteSpace=wrap;html=1;fontFamily=Helvetica;fontSize=12;fontColor=default;strokeColor=default;fillColor=#2A9D8F;strokeWidth=2;fillWeight=2;hachureGap=8;fillStyle=dots;sketch=1;opacity=60;direction=south;" parent="q_E4oddG3_Drv03ctLGm-1" vertex="1">
                    <mxGeometry x="1140" y="1558.75" width="70" height="70" as="geometry"/>
                </mxCell>
                <mxCell id="SyPFVVuLvSQm0flZvW_D-66" value="clients_pending_write" style="text;html=1;align=center;verticalAlign=middle;resizable=0;points=[];autosize=1;strokeColor=none;fillColor=none;fontSize=18;" parent="q_E4oddG3_Drv03ctLGm-1" vertex="1">
                    <mxGeometry x="1020" y="1510" width="190" height="30" as="geometry"/>
                </mxCell>
                <mxCell id="BRGyFOxaYjBVbTZo5GIt-17" style="edgeStyle=orthogonalEdgeStyle;html=1;entryX=1;entryY=0.5;entryDx=0;entryDy=0;fontSize=18;startArrow=classic;startFill=1;" parent="q_E4oddG3_Drv03ctLGm-1" source="BRGyFOxaYjBVbTZo5GIt-7" target="BRGyFOxaYjBVbTZo5GIt-14" edge="1">
                    <mxGeometry relative="1" as="geometry">
                        <Array as="points">
                            <mxPoint x="790" y="1640"/>
                            <mxPoint x="435" y="1640"/>
                        </Array>
                    </mxGeometry>
                </mxCell>
                <mxCell id="BRGyFOxaYjBVbTZo5GIt-7" value="&lt;font style=&quot;font-size: 18px&quot;&gt;client&lt;/font&gt;" style="rounded=0;whiteSpace=wrap;html=1;fontFamily=Helvetica;fontSize=12;fontColor=default;strokeColor=default;fillColor=#2A9D8F;strokeWidth=2;fillWeight=2;hachureGap=8;fillStyle=dots;sketch=1;opacity=60;direction=south;" parent="q_E4oddG3_Drv03ctLGm-1" vertex="1">
                    <mxGeometry x="755" y="1558.75" width="70" height="70" as="geometry"/>
                </mxCell>
                <mxCell id="BRGyFOxaYjBVbTZo5GIt-27" style="edgeStyle=orthogonalEdgeStyle;html=1;entryX=1;entryY=0.5;entryDx=0;entryDy=0;fontSize=18;startArrow=classic;startFill=1;" parent="q_E4oddG3_Drv03ctLGm-1" source="BRGyFOxaYjBVbTZo5GIt-8" target="BRGyFOxaYjBVbTZo5GIt-15" edge="1">
                    <mxGeometry relative="1" as="geometry">
                        <Array as="points">
                            <mxPoint x="910" y="1640"/>
                            <mxPoint x="555" y="1640"/>
                        </Array>
                    </mxGeometry>
                </mxCell>
                <mxCell id="BRGyFOxaYjBVbTZo5GIt-8" value="&lt;font style=&quot;font-size: 18px&quot;&gt;client&lt;/font&gt;" style="rounded=0;whiteSpace=wrap;html=1;fontFamily=Helvetica;fontSize=12;fontColor=default;strokeColor=default;fillColor=#2A9D8F;strokeWidth=2;fillWeight=2;hachureGap=8;fillStyle=dots;sketch=1;opacity=60;direction=south;" parent="q_E4oddG3_Drv03ctLGm-1" vertex="1">
                    <mxGeometry x="875" y="1558.75" width="70" height="70" as="geometry"/>
                </mxCell>
                <mxCell id="BRGyFOxaYjBVbTZo5GIt-10" value="clients_pending_read" style="text;html=1;align=center;verticalAlign=middle;resizable=0;points=[];autosize=1;strokeColor=none;fillColor=none;fontSize=18;" parent="q_E4oddG3_Drv03ctLGm-1" vertex="1">
                    <mxGeometry x="750" y="1515" width="190" height="30" as="geometry"/>
                </mxCell>
                <mxCell id="BRGyFOxaYjBVbTZo5GIt-20" style="edgeStyle=orthogonalEdgeStyle;html=1;entryX=0.5;entryY=1;entryDx=0;entryDy=0;fontSize=18;startArrow=classic;startFill=1;" parent="q_E4oddG3_Drv03ctLGm-1" source="BRGyFOxaYjBVbTZo5GIt-14" target="SyPFVVuLvSQm0flZvW_D-29" edge="1">
                    <mxGeometry relative="1" as="geometry"/>
                </mxCell>
                <mxCell id="BRGyFOxaYjBVbTZo5GIt-14" value="&lt;font style=&quot;font-size: 18px&quot;&gt;I/O&lt;br&gt;Thread&lt;br&gt;&lt;/font&gt;" style="rounded=1;whiteSpace=wrap;html=1;strokeWidth=2;fillWeight=4;hachureGap=8;hachureAngle=45;fillColor=#E63946;sketch=1;fontSize=16;opacity=60;fillStyle=dashed;direction=south;" parent="q_E4oddG3_Drv03ctLGm-1" vertex="1">
                    <mxGeometry x="390" y="1210" width="90" height="70" as="geometry"/>
                </mxCell>
                <mxCell id="BRGyFOxaYjBVbTZo5GIt-21" style="edgeStyle=orthogonalEdgeStyle;html=1;entryX=0.5;entryY=1;entryDx=0;entryDy=0;fontSize=18;startArrow=classic;startFill=1;" parent="q_E4oddG3_Drv03ctLGm-1" source="BRGyFOxaYjBVbTZo5GIt-15" target="SyPFVVuLvSQm0flZvW_D-29" edge="1">
                    <mxGeometry relative="1" as="geometry"/>
                </mxCell>
                <mxCell id="BRGyFOxaYjBVbTZo5GIt-15" value="&lt;font style=&quot;font-size: 18px&quot;&gt;I/O&lt;br&gt;Thread&lt;br&gt;&lt;/font&gt;" style="rounded=1;whiteSpace=wrap;html=1;strokeWidth=2;fillWeight=4;hachureGap=8;hachureAngle=45;fillColor=#E63946;sketch=1;fontSize=16;opacity=60;fillStyle=dashed;direction=south;" parent="q_E4oddG3_Drv03ctLGm-1" vertex="1">
                    <mxGeometry x="510" y="1210" width="90" height="70" as="geometry"/>
                </mxCell>
            </root>
        </mxGraphModel>
    </diagram>
    <diagram id="mX-UH3VdsVsm4J8shtKE" name="reactor-3">
        <mxGraphModel dx="898" dy="680" grid="1" gridSize="10" guides="1" tooltips="1" connect="1" arrows="1" fold="1" page="1" pageScale="1" pageWidth="3300" pageHeight="4681" math="0" shadow="0">
            <root>
                <mxCell id="AN7UPiiHz3ZN9YLO5DTp-0"/>
                <mxCell id="AN7UPiiHz3ZN9YLO5DTp-1" parent="AN7UPiiHz3ZN9YLO5DTp-0"/>
                <mxCell id="ELp1plrgk6yOZGfu74LT-0" value="" style="verticalLabelPosition=bottom;verticalAlign=top;html=1;shape=mxgraph.basic.rect;fillColor2=none;strokeWidth=1;size=20;indent=5;fillColor=none;dashed=1;" parent="AN7UPiiHz3ZN9YLO5DTp-1" vertex="1">
                    <mxGeometry x="420" y="640" width="690" height="150" as="geometry"/>
                </mxCell>
                <mxCell id="AN7UPiiHz3ZN9YLO5DTp-3" style="edgeStyle=orthogonalEdgeStyle;html=1;entryX=0;entryY=0.5;entryDx=0;entryDy=0;fontSize=18;startArrow=none;startFill=0;" parent="AN7UPiiHz3ZN9YLO5DTp-1" source="AN7UPiiHz3ZN9YLO5DTp-6" target="AN7UPiiHz3ZN9YLO5DTp-17" edge="1">
                    <mxGeometry relative="1" as="geometry"/>
                </mxCell>
                <mxCell id="AN7UPiiHz3ZN9YLO5DTp-4" value="建立&lt;br&gt;连接" style="edgeLabel;html=1;align=center;verticalAlign=middle;resizable=0;points=[];fontSize=18;" parent="AN7UPiiHz3ZN9YLO5DTp-3" vertex="1" connectable="0">
                    <mxGeometry x="-0.2" relative="1" as="geometry">
                        <mxPoint x="11" as="offset"/>
                    </mxGeometry>
                </mxCell>
                <mxCell id="AN7UPiiHz3ZN9YLO5DTp-54" style="edgeStyle=orthogonalEdgeStyle;html=1;entryX=0.448;entryY=-0.018;entryDx=0;entryDy=0;entryPerimeter=0;fontSize=18;startArrow=none;startFill=0;" parent="AN7UPiiHz3ZN9YLO5DTp-1" source="AN7UPiiHz3ZN9YLO5DTp-6" target="AN7UPiiHz3ZN9YLO5DTp-46" edge="1">
                    <mxGeometry relative="1" as="geometry"/>
                </mxCell>
                <mxCell id="AN7UPiiHz3ZN9YLO5DTp-55" style="edgeStyle=orthogonalEdgeStyle;html=1;entryX=0.559;entryY=-0.067;entryDx=0;entryDy=0;entryPerimeter=0;fontSize=18;startArrow=none;startFill=0;" parent="AN7UPiiHz3ZN9YLO5DTp-1" source="AN7UPiiHz3ZN9YLO5DTp-6" target="AN7UPiiHz3ZN9YLO5DTp-52" edge="1">
                    <mxGeometry relative="1" as="geometry">
                        <Array as="points">
                            <mxPoint x="730" y="820"/>
                            <mxPoint x="874" y="820"/>
                        </Array>
                    </mxGeometry>
                </mxCell>
                <mxCell id="AN7UPiiHz3ZN9YLO5DTp-6" value="" style="rounded=1;whiteSpace=wrap;html=1;strokeWidth=2;fillWeight=2;hachureGap=8;hachureAngle=45;fillColor=none;sketch=1;fontSize=16;fillStyle=dots;" parent="AN7UPiiHz3ZN9YLO5DTp-1" vertex="1">
                    <mxGeometry x="620" y="670" width="220" height="110" as="geometry"/>
                </mxCell>
                <mxCell id="AN7UPiiHz3ZN9YLO5DTp-7" style="edgeStyle=orthogonalEdgeStyle;html=1;entryX=0.5;entryY=0;entryDx=0;entryDy=0;fontSize=18;startArrow=none;startFill=0;" parent="AN7UPiiHz3ZN9YLO5DTp-1" source="AN7UPiiHz3ZN9YLO5DTp-8" target="AN7UPiiHz3ZN9YLO5DTp-6" edge="1">
                    <mxGeometry relative="1" as="geometry">
                        <Array as="points">
                            <mxPoint x="870" y="620"/>
                            <mxPoint x="730" y="620"/>
                        </Array>
                    </mxGeometry>
                </mxCell>
                <mxCell id="AN7UPiiHz3ZN9YLO5DTp-8" value="&lt;font style=&quot;font-size: 18px&quot;&gt;client&lt;/font&gt;" style="ellipse;whiteSpace=wrap;html=1;strokeWidth=2;fillWeight=2;hachureGap=8;fillColor=#E9C46A;fillStyle=dots;sketch=1;fontSize=16;opacity=60;" parent="AN7UPiiHz3ZN9YLO5DTp-1" vertex="1">
                    <mxGeometry x="810" y="540" width="120" height="60" as="geometry"/>
                </mxCell>
                <mxCell id="AN7UPiiHz3ZN9YLO5DTp-9" style="edgeStyle=orthogonalEdgeStyle;html=1;entryX=0.5;entryY=0;entryDx=0;entryDy=0;fontSize=18;startArrow=none;startFill=0;" parent="AN7UPiiHz3ZN9YLO5DTp-1" source="AN7UPiiHz3ZN9YLO5DTp-10" target="AN7UPiiHz3ZN9YLO5DTp-6" edge="1">
                    <mxGeometry relative="1" as="geometry"/>
                </mxCell>
                <mxCell id="AN7UPiiHz3ZN9YLO5DTp-10" value="&lt;font style=&quot;font-size: 18px&quot;&gt;client&lt;/font&gt;" style="ellipse;whiteSpace=wrap;html=1;strokeWidth=2;fillWeight=2;hachureGap=8;fillColor=#E9C46A;fillStyle=dots;sketch=1;fontSize=16;opacity=60;" parent="AN7UPiiHz3ZN9YLO5DTp-1" vertex="1">
                    <mxGeometry x="670" y="540" width="120" height="60" as="geometry"/>
                </mxCell>
                <mxCell id="AN7UPiiHz3ZN9YLO5DTp-11" style="edgeStyle=orthogonalEdgeStyle;html=1;entryX=0.5;entryY=0;entryDx=0;entryDy=0;fontSize=18;startArrow=none;startFill=0;" parent="AN7UPiiHz3ZN9YLO5DTp-1" source="AN7UPiiHz3ZN9YLO5DTp-12" target="AN7UPiiHz3ZN9YLO5DTp-6" edge="1">
                    <mxGeometry relative="1" as="geometry">
                        <Array as="points">
                            <mxPoint x="590" y="620"/>
                            <mxPoint x="730" y="620"/>
                        </Array>
                    </mxGeometry>
                </mxCell>
                <mxCell id="AN7UPiiHz3ZN9YLO5DTp-12" value="&lt;font style=&quot;font-size: 18px&quot;&gt;client&lt;/font&gt;" style="ellipse;whiteSpace=wrap;html=1;strokeWidth=2;fillWeight=2;hachureGap=8;fillColor=#E9C46A;fillStyle=dots;sketch=1;fontSize=16;opacity=60;" parent="AN7UPiiHz3ZN9YLO5DTp-1" vertex="1">
                    <mxGeometry x="530" y="540" width="120" height="60" as="geometry"/>
                </mxCell>
                <mxCell id="AN7UPiiHz3ZN9YLO5DTp-15" value="&lt;font style=&quot;font-size: 18px&quot;&gt;dispatch&lt;/font&gt;" style="rounded=1;whiteSpace=wrap;html=1;fontSize=16;fillColor=#5FAD56;strokeWidth=2;fillWeight=4;hachureGap=8;fillStyle=dashed;sketch=1;hachureAngle=45;opacity=60;" parent="AN7UPiiHz3ZN9YLO5DTp-1" vertex="1">
                    <mxGeometry x="731.25" y="715" width="100" height="50" as="geometry"/>
                </mxCell>
                <mxCell id="AN7UPiiHz3ZN9YLO5DTp-16" value="mainReactor" style="text;html=1;align=center;verticalAlign=middle;resizable=0;points=[];autosize=1;strokeColor=none;fillColor=none;fontSize=18;" parent="AN7UPiiHz3ZN9YLO5DTp-1" vertex="1">
                    <mxGeometry x="667.5" y="675" width="120" height="30" as="geometry"/>
                </mxCell>
                <mxCell id="AN7UPiiHz3ZN9YLO5DTp-17" value="" style="rounded=1;whiteSpace=wrap;html=1;strokeWidth=2;fillWeight=2;hachureGap=8;hachureAngle=45;fillColor=none;sketch=1;fontSize=16;fillStyle=dots;" parent="AN7UPiiHz3ZN9YLO5DTp-1" vertex="1">
                    <mxGeometry x="920" y="675" width="170" height="100" as="geometry"/>
                </mxCell>
                <mxCell id="AN7UPiiHz3ZN9YLO5DTp-19" value="" style="rounded=1;whiteSpace=wrap;html=1;strokeWidth=2;fillWeight=2;hachureGap=8;hachureAngle=45;fillColor=none;sketch=1;fontSize=16;fillStyle=dots;" parent="AN7UPiiHz3ZN9YLO5DTp-1" vertex="1">
                    <mxGeometry x="463.75" y="1020" width="230" height="170" as="geometry"/>
                </mxCell>
                <mxCell id="AN7UPiiHz3ZN9YLO5DTp-20" value="&lt;font style=&quot;font-size: 18px&quot;&gt;accept&lt;/font&gt;" style="rounded=1;whiteSpace=wrap;html=1;fontSize=16;fillColor=#2A9D8F;strokeWidth=2;fillWeight=4;hachureGap=8;fillStyle=dashed;sketch=1;hachureAngle=45;opacity=60;" parent="AN7UPiiHz3ZN9YLO5DTp-1" vertex="1">
                    <mxGeometry x="958.75" y="715" width="100" height="50" as="geometry"/>
                </mxCell>
                <mxCell id="AN7UPiiHz3ZN9YLO5DTp-21" value="acceptor" style="text;html=1;align=center;verticalAlign=middle;resizable=0;points=[];autosize=1;strokeColor=none;fillColor=none;fontSize=18;" parent="AN7UPiiHz3ZN9YLO5DTp-1" vertex="1">
                    <mxGeometry x="968.75" y="675" width="80" height="30" as="geometry"/>
                </mxCell>
                <mxCell id="AN7UPiiHz3ZN9YLO5DTp-22" value="handler" style="text;html=1;align=center;verticalAlign=middle;resizable=0;points=[];autosize=1;strokeColor=none;fillColor=none;fontSize=18;" parent="AN7UPiiHz3ZN9YLO5DTp-1" vertex="1">
                    <mxGeometry x="535" y="1020" width="80" height="30" as="geometry"/>
                </mxCell>
                <mxCell id="AN7UPiiHz3ZN9YLO5DTp-23" value="&lt;font style=&quot;font-size: 18px&quot;&gt;read&lt;/font&gt;" style="rounded=1;whiteSpace=wrap;html=1;fontSize=16;fillColor=#2A9D8F;strokeWidth=2;fillWeight=4;hachureGap=8;fillStyle=dashed;sketch=1;hachureAngle=45;opacity=60;" parent="AN7UPiiHz3ZN9YLO5DTp-1" vertex="1">
                    <mxGeometry x="476.25" y="1070" width="100" height="50" as="geometry"/>
                </mxCell>
                <mxCell id="AN7UPiiHz3ZN9YLO5DTp-24" value="&lt;font style=&quot;font-size: 18px&quot;&gt;send&lt;/font&gt;" style="rounded=1;whiteSpace=wrap;html=1;fontSize=16;fillColor=#2A9D8F;strokeWidth=2;fillWeight=4;hachureGap=8;fillStyle=dashed;sketch=1;hachureAngle=45;opacity=60;" parent="AN7UPiiHz3ZN9YLO5DTp-1" vertex="1">
                    <mxGeometry x="586.25" y="1070" width="100" height="50" as="geometry"/>
                </mxCell>
                <mxCell id="AN7UPiiHz3ZN9YLO5DTp-26" value="" style="rounded=1;whiteSpace=wrap;html=1;strokeWidth=2;fillWeight=2;hachureGap=8;hachureAngle=45;fillColor=none;sketch=1;fontSize=16;fillStyle=dots;" parent="AN7UPiiHz3ZN9YLO5DTp-1" vertex="1">
                    <mxGeometry x="761.25" y="1020" width="230" height="170" as="geometry"/>
                </mxCell>
                <mxCell id="AN7UPiiHz3ZN9YLO5DTp-27" value="handler" style="text;html=1;align=center;verticalAlign=middle;resizable=0;points=[];autosize=1;strokeColor=none;fillColor=none;fontSize=18;" parent="AN7UPiiHz3ZN9YLO5DTp-1" vertex="1">
                    <mxGeometry x="830" y="1020" width="80" height="30" as="geometry"/>
                </mxCell>
                <mxCell id="AN7UPiiHz3ZN9YLO5DTp-28" value="&lt;font style=&quot;font-size: 18px&quot;&gt;read&lt;/font&gt;" style="rounded=1;whiteSpace=wrap;html=1;fontSize=16;fillColor=#2A9D8F;strokeWidth=2;fillWeight=4;hachureGap=8;fillStyle=dashed;sketch=1;hachureAngle=45;opacity=60;" parent="AN7UPiiHz3ZN9YLO5DTp-1" vertex="1">
                    <mxGeometry x="771.25" y="1070" width="100" height="50" as="geometry"/>
                </mxCell>
                <mxCell id="AN7UPiiHz3ZN9YLO5DTp-29" value="&lt;font style=&quot;font-size: 18px&quot;&gt;send&lt;/font&gt;" style="rounded=1;whiteSpace=wrap;html=1;fontSize=16;fillColor=#2A9D8F;strokeWidth=2;fillWeight=4;hachureGap=8;fillStyle=dashed;sketch=1;hachureAngle=45;opacity=60;" parent="AN7UPiiHz3ZN9YLO5DTp-1" vertex="1">
                    <mxGeometry x="881.25" y="1070" width="100" height="50" as="geometry"/>
                </mxCell>
                <mxCell id="AN7UPiiHz3ZN9YLO5DTp-38" value="主线程" style="text;html=1;align=center;verticalAlign=middle;resizable=0;points=[];autosize=1;strokeColor=none;fillColor=none;fontSize=18;" parent="AN7UPiiHz3ZN9YLO5DTp-1" vertex="1">
                    <mxGeometry x="420" y="645" width="70" height="30" as="geometry"/>
                </mxCell>
                <mxCell id="AN7UPiiHz3ZN9YLO5DTp-41" value="&lt;font style=&quot;font-size: 18px&quot;&gt;select&lt;/font&gt;" style="rounded=1;whiteSpace=wrap;html=1;fontSize=16;fillColor=#5FAD56;strokeWidth=2;fillWeight=4;hachureGap=8;fillStyle=dashed;sketch=1;hachureAngle=45;opacity=60;" parent="AN7UPiiHz3ZN9YLO5DTp-1" vertex="1">
                    <mxGeometry x="625" y="715" width="100" height="50" as="geometry"/>
                </mxCell>
                <mxCell id="AN7UPiiHz3ZN9YLO5DTp-43" value="&lt;span style=&quot;font-size: 18px&quot;&gt;业务处理&lt;/span&gt;" style="rounded=1;whiteSpace=wrap;html=1;fontSize=16;fillColor=#2A9D8F;strokeWidth=2;fillWeight=4;hachureGap=8;fillStyle=dashed;sketch=1;hachureAngle=45;opacity=60;" parent="AN7UPiiHz3ZN9YLO5DTp-1" vertex="1">
                    <mxGeometry x="528.75" y="1130" width="100" height="50" as="geometry"/>
                </mxCell>
                <mxCell id="AN7UPiiHz3ZN9YLO5DTp-44" value="&lt;span style=&quot;font-size: 18px&quot;&gt;业务处理&lt;/span&gt;" style="rounded=1;whiteSpace=wrap;html=1;fontSize=16;fillColor=#2A9D8F;strokeWidth=2;fillWeight=4;hachureGap=8;fillStyle=dashed;sketch=1;hachureAngle=45;opacity=60;" parent="AN7UPiiHz3ZN9YLO5DTp-1" vertex="1">
                    <mxGeometry x="826.25" y="1130" width="100" height="50" as="geometry"/>
                </mxCell>
                <mxCell id="AN7UPiiHz3ZN9YLO5DTp-56" style="edgeStyle=orthogonalEdgeStyle;html=1;entryX=0.5;entryY=0;entryDx=0;entryDy=0;fontSize=18;startArrow=none;startFill=0;" parent="AN7UPiiHz3ZN9YLO5DTp-1" source="AN7UPiiHz3ZN9YLO5DTp-46" target="AN7UPiiHz3ZN9YLO5DTp-19" edge="1">
                    <mxGeometry relative="1" as="geometry"/>
                </mxCell>
                <mxCell id="AN7UPiiHz3ZN9YLO5DTp-46" value="" style="rounded=1;whiteSpace=wrap;html=1;strokeWidth=2;fillWeight=2;hachureGap=8;hachureAngle=45;fillColor=none;sketch=1;fontSize=16;fillStyle=dots;" parent="AN7UPiiHz3ZN9YLO5DTp-1" vertex="1">
                    <mxGeometry x="467.5" y="860" width="220" height="110" as="geometry"/>
                </mxCell>
                <mxCell id="AN7UPiiHz3ZN9YLO5DTp-47" value="&lt;font style=&quot;font-size: 18px&quot;&gt;dispatch&lt;/font&gt;" style="rounded=1;whiteSpace=wrap;html=1;fontSize=16;fillColor=#5FAD56;strokeWidth=2;fillWeight=4;hachureGap=8;fillStyle=dashed;sketch=1;hachureAngle=45;opacity=60;" parent="AN7UPiiHz3ZN9YLO5DTp-1" vertex="1">
                    <mxGeometry x="578.75" y="905" width="100" height="50" as="geometry"/>
                </mxCell>
                <mxCell id="AN7UPiiHz3ZN9YLO5DTp-48" value="subReactor" style="text;html=1;align=center;verticalAlign=middle;resizable=0;points=[];autosize=1;strokeColor=none;fillColor=none;fontSize=18;" parent="AN7UPiiHz3ZN9YLO5DTp-1" vertex="1">
                    <mxGeometry x="520" y="865" width="110" height="30" as="geometry"/>
                </mxCell>
                <mxCell id="AN7UPiiHz3ZN9YLO5DTp-49" value="&lt;font style=&quot;font-size: 18px&quot;&gt;select&lt;/font&gt;" style="rounded=1;whiteSpace=wrap;html=1;fontSize=16;fillColor=#5FAD56;strokeWidth=2;fillWeight=4;hachureGap=8;fillStyle=dashed;sketch=1;hachureAngle=45;opacity=60;" parent="AN7UPiiHz3ZN9YLO5DTp-1" vertex="1">
                    <mxGeometry x="472.5" y="905" width="100" height="50" as="geometry"/>
                </mxCell>
                <mxCell id="AN7UPiiHz3ZN9YLO5DTp-57" style="edgeStyle=orthogonalEdgeStyle;html=1;fontSize=18;startArrow=none;startFill=0;" parent="AN7UPiiHz3ZN9YLO5DTp-1" source="AN7UPiiHz3ZN9YLO5DTp-50" target="AN7UPiiHz3ZN9YLO5DTp-27" edge="1">
                    <mxGeometry relative="1" as="geometry"/>
                </mxCell>
                <mxCell id="AN7UPiiHz3ZN9YLO5DTp-50" value="" style="rounded=1;whiteSpace=wrap;html=1;strokeWidth=2;fillWeight=2;hachureGap=8;hachureAngle=45;fillColor=none;sketch=1;fontSize=16;fillStyle=dots;" parent="AN7UPiiHz3ZN9YLO5DTp-1" vertex="1">
                    <mxGeometry x="760" y="860" width="220" height="110" as="geometry"/>
                </mxCell>
                <mxCell id="AN7UPiiHz3ZN9YLO5DTp-51" value="&lt;font style=&quot;font-size: 18px&quot;&gt;dispatch&lt;/font&gt;" style="rounded=1;whiteSpace=wrap;html=1;fontSize=16;fillColor=#5FAD56;strokeWidth=2;fillWeight=4;hachureGap=8;fillStyle=dashed;sketch=1;hachureAngle=45;opacity=60;" parent="AN7UPiiHz3ZN9YLO5DTp-1" vertex="1">
                    <mxGeometry x="871.25" y="905" width="100" height="50" as="geometry"/>
                </mxCell>
                <mxCell id="AN7UPiiHz3ZN9YLO5DTp-52" value="subReactor" style="text;html=1;align=center;verticalAlign=middle;resizable=0;points=[];autosize=1;strokeColor=none;fillColor=none;fontSize=18;" parent="AN7UPiiHz3ZN9YLO5DTp-1" vertex="1">
                    <mxGeometry x="812.5" y="865" width="110" height="30" as="geometry"/>
                </mxCell>
                <mxCell id="AN7UPiiHz3ZN9YLO5DTp-53" value="&lt;font style=&quot;font-size: 18px&quot;&gt;select&lt;/font&gt;" style="rounded=1;whiteSpace=wrap;html=1;fontSize=16;fillColor=#5FAD56;strokeWidth=2;fillWeight=4;hachureGap=8;fillStyle=dashed;sketch=1;hachureAngle=45;opacity=60;" parent="AN7UPiiHz3ZN9YLO5DTp-1" vertex="1">
                    <mxGeometry x="765" y="905" width="100" height="50" as="geometry"/>
                </mxCell>
                <mxCell id="ELp1plrgk6yOZGfu74LT-1" value="" style="verticalLabelPosition=bottom;verticalAlign=top;html=1;shape=mxgraph.basic.rect;fillColor2=none;strokeWidth=1;size=20;indent=5;fillColor=none;dashed=1;strokeColor=#E63946;" parent="AN7UPiiHz3ZN9YLO5DTp-1" vertex="1">
                    <mxGeometry x="420" y="840" width="290" height="370" as="geometry"/>
                </mxCell>
                <mxCell id="ELp1plrgk6yOZGfu74LT-2" value="子&lt;br&gt;线&lt;br&gt;程" style="text;html=1;align=center;verticalAlign=middle;resizable=0;points=[];autosize=1;strokeColor=none;fillColor=none;fontSize=18;" parent="AN7UPiiHz3ZN9YLO5DTp-1" vertex="1">
                    <mxGeometry x="420" y="845" width="30" height="70" as="geometry"/>
                </mxCell>
                <mxCell id="ELp1plrgk6yOZGfu74LT-3" value="" style="verticalLabelPosition=bottom;verticalAlign=top;html=1;shape=mxgraph.basic.rect;fillColor2=none;strokeWidth=1;size=20;indent=5;fillColor=none;dashed=1;strokeColor=#E63946;" parent="AN7UPiiHz3ZN9YLO5DTp-1" vertex="1">
                    <mxGeometry x="740" y="840" width="290" height="370" as="geometry"/>
                </mxCell>
                <mxCell id="ELp1plrgk6yOZGfu74LT-4" value="子&lt;br&gt;线&lt;br&gt;程" style="text;html=1;align=center;verticalAlign=middle;resizable=0;points=[];autosize=1;strokeColor=none;fillColor=none;fontSize=18;" parent="AN7UPiiHz3ZN9YLO5DTp-1" vertex="1">
                    <mxGeometry x="1000" y="845" width="30" height="70" as="geometry"/>
                </mxCell>
            </root>
        </mxGraphModel>
    </diagram>
    <diagram id="SihR-3rMrDKXmETeyq03" name="reactor-1">
        <mxGraphModel dx="898" dy="680" grid="1" gridSize="10" guides="1" tooltips="1" connect="1" arrows="1" fold="1" page="1" pageScale="1" pageWidth="3300" pageHeight="4681" math="0" shadow="0">
            <root>
                <mxCell id="U_S4nQfk2S35pz2fE1vD-0"/>
                <mxCell id="U_S4nQfk2S35pz2fE1vD-1" parent="U_S4nQfk2S35pz2fE1vD-0"/>
                <mxCell id="TSclHmUN3-PxW1BqqHxQ-23" value="" style="verticalLabelPosition=bottom;verticalAlign=top;html=1;shape=mxgraph.basic.rect;fillColor2=none;strokeWidth=1;size=20;indent=5;fillColor=none;dashed=1;" parent="U_S4nQfk2S35pz2fE1vD-1" vertex="1">
                    <mxGeometry x="460" y="520" width="560" height="410" as="geometry"/>
                </mxCell>
                <mxCell id="TSclHmUN3-PxW1BqqHxQ-24" style="edgeStyle=orthogonalEdgeStyle;html=1;entryX=0;entryY=0.5;entryDx=0;entryDy=0;fontSize=18;" parent="U_S4nQfk2S35pz2fE1vD-1" target="TSclHmUN3-PxW1BqqHxQ-29" edge="1">
                    <mxGeometry relative="1" as="geometry">
                        <mxPoint x="370" y="590" as="sourcePoint"/>
                    </mxGeometry>
                </mxCell>
                <mxCell id="TSclHmUN3-PxW1BqqHxQ-25" style="edgeStyle=orthogonalEdgeStyle;html=1;entryX=0;entryY=0.5;entryDx=0;entryDy=0;fontSize=18;startArrow=none;startFill=0;" parent="U_S4nQfk2S35pz2fE1vD-1" target="TSclHmUN3-PxW1BqqHxQ-37" edge="1">
                    <mxGeometry relative="1" as="geometry">
                        <mxPoint x="710" y="705" as="sourcePoint"/>
                    </mxGeometry>
                </mxCell>
                <mxCell id="TSclHmUN3-PxW1BqqHxQ-26" value="建立连接" style="edgeLabel;html=1;align=center;verticalAlign=middle;resizable=0;points=[];fontSize=18;" parent="TSclHmUN3-PxW1BqqHxQ-25" vertex="1" connectable="0">
                    <mxGeometry x="0.1568" y="-2" relative="1" as="geometry">
                        <mxPoint x="-17" y="-23" as="offset"/>
                    </mxGeometry>
                </mxCell>
                <mxCell id="TSclHmUN3-PxW1BqqHxQ-27" style="edgeStyle=orthogonalEdgeStyle;html=1;entryX=0;entryY=0.5;entryDx=0;entryDy=0;fontSize=18;startArrow=none;startFill=0;" parent="U_S4nQfk2S35pz2fE1vD-1" target="TSclHmUN3-PxW1BqqHxQ-38" edge="1">
                    <mxGeometry relative="1" as="geometry">
                        <mxPoint x="710" y="705" as="sourcePoint"/>
                    </mxGeometry>
                </mxCell>
                <mxCell id="TSclHmUN3-PxW1BqqHxQ-28" value="处理任务" style="edgeLabel;html=1;align=center;verticalAlign=middle;resizable=0;points=[];fontSize=18;" parent="TSclHmUN3-PxW1BqqHxQ-27" vertex="1" connectable="0">
                    <mxGeometry x="0.3" y="-1" relative="1" as="geometry">
                        <mxPoint x="-19" y="-2" as="offset"/>
                    </mxGeometry>
                </mxCell>
                <mxCell id="TSclHmUN3-PxW1BqqHxQ-29" value="" style="rounded=1;whiteSpace=wrap;html=1;strokeWidth=2;fillWeight=2;hachureGap=8;hachureAngle=45;fillColor=none;sketch=1;fontSize=16;fillStyle=dots;" parent="U_S4nQfk2S35pz2fE1vD-1" vertex="1">
                    <mxGeometry x="480" y="650" width="230" height="110" as="geometry"/>
                </mxCell>
                <mxCell id="TSclHmUN3-PxW1BqqHxQ-30" style="edgeStyle=orthogonalEdgeStyle;html=1;entryX=0;entryY=0.5;entryDx=0;entryDy=0;fontSize=18;" parent="U_S4nQfk2S35pz2fE1vD-1" target="TSclHmUN3-PxW1BqqHxQ-29" edge="1">
                    <mxGeometry relative="1" as="geometry">
                        <mxPoint x="370" y="810" as="sourcePoint"/>
                    </mxGeometry>
                </mxCell>
                <mxCell id="TSclHmUN3-PxW1BqqHxQ-31" value="&lt;font style=&quot;font-size: 18px&quot;&gt;client&lt;/font&gt;" style="ellipse;whiteSpace=wrap;html=1;strokeWidth=2;fillWeight=2;hachureGap=8;fillColor=#E9C46A;fillStyle=dots;sketch=1;fontSize=16;opacity=60;" parent="U_S4nQfk2S35pz2fE1vD-1" vertex="1">
                    <mxGeometry x="250" y="560" width="120" height="60" as="geometry"/>
                </mxCell>
                <mxCell id="0Skci1wgg_1WcSwrjBFN-0" style="edgeStyle=orthogonalEdgeStyle;html=1;entryX=0;entryY=0.5;entryDx=0;entryDy=0;fontSize=18;startArrow=none;startFill=0;" parent="U_S4nQfk2S35pz2fE1vD-1" source="TSclHmUN3-PxW1BqqHxQ-33" target="TSclHmUN3-PxW1BqqHxQ-29" edge="1">
                    <mxGeometry relative="1" as="geometry"/>
                </mxCell>
                <mxCell id="TSclHmUN3-PxW1BqqHxQ-33" value="&lt;font style=&quot;font-size: 18px&quot;&gt;client&lt;/font&gt;" style="ellipse;whiteSpace=wrap;html=1;strokeWidth=2;fillWeight=2;hachureGap=8;fillColor=#E9C46A;fillStyle=dots;sketch=1;fontSize=16;opacity=60;" parent="U_S4nQfk2S35pz2fE1vD-1" vertex="1">
                    <mxGeometry x="250" y="675" width="120" height="60" as="geometry"/>
                </mxCell>
                <mxCell id="TSclHmUN3-PxW1BqqHxQ-34" value="&lt;font style=&quot;font-size: 18px&quot;&gt;client&lt;/font&gt;" style="ellipse;whiteSpace=wrap;html=1;strokeWidth=2;fillWeight=2;hachureGap=8;fillColor=#E9C46A;fillStyle=dots;sketch=1;fontSize=16;opacity=60;" parent="U_S4nQfk2S35pz2fE1vD-1" vertex="1">
                    <mxGeometry x="250" y="780" width="120" height="60" as="geometry"/>
                </mxCell>
                <mxCell id="TSclHmUN3-PxW1BqqHxQ-35" value="&lt;font style=&quot;font-size: 18px&quot;&gt;dispatch&lt;/font&gt;" style="rounded=1;whiteSpace=wrap;html=1;fontSize=16;fillColor=#5FAD56;strokeWidth=2;fillWeight=4;hachureGap=8;fillStyle=dashed;sketch=1;hachureAngle=45;opacity=60;" parent="U_S4nQfk2S35pz2fE1vD-1" vertex="1">
                    <mxGeometry x="605" y="700" width="100" height="50" as="geometry"/>
                </mxCell>
                <mxCell id="TSclHmUN3-PxW1BqqHxQ-36" value="reactor" style="text;html=1;align=center;verticalAlign=middle;resizable=0;points=[];autosize=1;strokeColor=none;fillColor=none;fontSize=18;" parent="U_S4nQfk2S35pz2fE1vD-1" vertex="1">
                    <mxGeometry x="560" y="660" width="70" height="30" as="geometry"/>
                </mxCell>
                <mxCell id="TSclHmUN3-PxW1BqqHxQ-37" value="" style="rounded=1;whiteSpace=wrap;html=1;strokeWidth=2;fillWeight=2;hachureGap=8;hachureAngle=45;fillColor=none;sketch=1;fontSize=16;fillStyle=dots;" parent="U_S4nQfk2S35pz2fE1vD-1" vertex="1">
                    <mxGeometry x="780" y="540" width="170" height="100" as="geometry"/>
                </mxCell>
                <mxCell id="TSclHmUN3-PxW1BqqHxQ-38" value="" style="rounded=1;whiteSpace=wrap;html=1;strokeWidth=2;fillWeight=2;hachureGap=8;hachureAngle=45;fillColor=none;sketch=1;fontSize=16;fillStyle=dots;" parent="U_S4nQfk2S35pz2fE1vD-1" vertex="1">
                    <mxGeometry x="770" y="740" width="230" height="170" as="geometry"/>
                </mxCell>
                <mxCell id="TSclHmUN3-PxW1BqqHxQ-39" value="&lt;font style=&quot;font-size: 18px&quot;&gt;accept&lt;/font&gt;" style="rounded=1;whiteSpace=wrap;html=1;fontSize=16;fillColor=#2A9D8F;strokeWidth=2;fillWeight=4;hachureGap=8;fillStyle=dashed;sketch=1;hachureAngle=45;opacity=60;" parent="U_S4nQfk2S35pz2fE1vD-1" vertex="1">
                    <mxGeometry x="818.75" y="580" width="100" height="50" as="geometry"/>
                </mxCell>
                <mxCell id="TSclHmUN3-PxW1BqqHxQ-40" value="acceptor" style="text;html=1;align=center;verticalAlign=middle;resizable=0;points=[];autosize=1;strokeColor=none;fillColor=none;fontSize=18;" parent="U_S4nQfk2S35pz2fE1vD-1" vertex="1">
                    <mxGeometry x="828.75" y="540" width="80" height="30" as="geometry"/>
                </mxCell>
                <mxCell id="TSclHmUN3-PxW1BqqHxQ-41" value="handler" style="text;html=1;align=center;verticalAlign=middle;resizable=0;points=[];autosize=1;strokeColor=none;fillColor=none;fontSize=18;" parent="U_S4nQfk2S35pz2fE1vD-1" vertex="1">
                    <mxGeometry x="848.75" y="750" width="80" height="30" as="geometry"/>
                </mxCell>
                <mxCell id="TSclHmUN3-PxW1BqqHxQ-42" value="&lt;font style=&quot;font-size: 18px&quot;&gt;read&lt;/font&gt;" style="rounded=1;whiteSpace=wrap;html=1;fontSize=16;fillColor=#2A9D8F;strokeWidth=2;fillWeight=4;hachureGap=8;fillStyle=dashed;sketch=1;hachureAngle=45;opacity=60;" parent="U_S4nQfk2S35pz2fE1vD-1" vertex="1">
                    <mxGeometry x="780" y="790" width="100" height="50" as="geometry"/>
                </mxCell>
                <mxCell id="TSclHmUN3-PxW1BqqHxQ-43" value="业务处理" style="rounded=1;whiteSpace=wrap;html=1;fontSize=16;fillColor=#2A9D8F;strokeWidth=2;fillWeight=4;hachureGap=8;fillStyle=dashed;sketch=1;hachureAngle=45;opacity=60;" parent="U_S4nQfk2S35pz2fE1vD-1" vertex="1">
                    <mxGeometry x="838.75" y="850" width="100" height="50" as="geometry"/>
                </mxCell>
                <mxCell id="TSclHmUN3-PxW1BqqHxQ-44" value="&lt;font style=&quot;font-size: 18px&quot;&gt;send&lt;/font&gt;" style="rounded=1;whiteSpace=wrap;html=1;fontSize=16;fillColor=#2A9D8F;strokeWidth=2;fillWeight=4;hachureGap=8;fillStyle=dashed;sketch=1;hachureAngle=45;opacity=60;" parent="U_S4nQfk2S35pz2fE1vD-1" vertex="1">
                    <mxGeometry x="890" y="790" width="100" height="50" as="geometry"/>
                </mxCell>
                <mxCell id="TSclHmUN3-PxW1BqqHxQ-45" value="线程" style="text;html=1;align=center;verticalAlign=middle;resizable=0;points=[];autosize=1;strokeColor=none;fillColor=none;fontSize=18;" parent="U_S4nQfk2S35pz2fE1vD-1" vertex="1">
                    <mxGeometry x="475" y="530" width="50" height="30" as="geometry"/>
                </mxCell>
                <mxCell id="0Skci1wgg_1WcSwrjBFN-1" value="&lt;font style=&quot;font-size: 18px&quot;&gt;select&lt;/font&gt;" style="rounded=1;whiteSpace=wrap;html=1;fontSize=16;fillColor=#5FAD56;strokeWidth=2;fillWeight=4;hachureGap=8;fillStyle=dashed;sketch=1;hachureAngle=45;opacity=60;" parent="U_S4nQfk2S35pz2fE1vD-1" vertex="1">
                    <mxGeometry x="490" y="700" width="100" height="50" as="geometry"/>
                </mxCell>
            </root>
        </mxGraphModel>
    </diagram>
    <diagram name="reactor-2" id="cpeWkNqH-EPLwLXyGvtH">
        <mxGraphModel dx="898" dy="680" grid="1" gridSize="10" guides="1" tooltips="1" connect="1" arrows="1" fold="1" page="1" pageScale="1" pageWidth="3300" pageHeight="4681" math="0" shadow="0">
            <root>
                <mxCell id="CLgS07pZJv1Tw2EI7n1P-0"/>
                <mxCell id="CLgS07pZJv1Tw2EI7n1P-1" parent="CLgS07pZJv1Tw2EI7n1P-0"/>
                <mxCell id="CLgS07pZJv1Tw2EI7n1P-2" value="" style="verticalLabelPosition=bottom;verticalAlign=top;html=1;shape=mxgraph.basic.rect;fillColor2=none;strokeWidth=1;size=20;indent=5;fillColor=none;dashed=1;" parent="CLgS07pZJv1Tw2EI7n1P-1" vertex="1">
                    <mxGeometry x="450" y="640" width="650" height="370" as="geometry"/>
                </mxCell>
                <mxCell id="CLgS07pZJv1Tw2EI7n1P-4" style="edgeStyle=orthogonalEdgeStyle;html=1;entryX=0;entryY=0.5;entryDx=0;entryDy=0;fontSize=18;startArrow=none;startFill=0;" parent="CLgS07pZJv1Tw2EI7n1P-1" source="CLgS07pZJv1Tw2EI7n1P-8" target="CLgS07pZJv1Tw2EI7n1P-16" edge="1">
                    <mxGeometry relative="1" as="geometry"/>
                </mxCell>
                <mxCell id="EobQiTror4fOo6DMna0b-10" value="建立&lt;br&gt;连接" style="edgeLabel;html=1;align=center;verticalAlign=middle;resizable=0;points=[];fontSize=18;" parent="CLgS07pZJv1Tw2EI7n1P-4" vertex="1" connectable="0">
                    <mxGeometry x="-0.2" relative="1" as="geometry">
                        <mxPoint x="11" as="offset"/>
                    </mxGeometry>
                </mxCell>
                <mxCell id="EobQiTror4fOo6DMna0b-8" style="edgeStyle=orthogonalEdgeStyle;html=1;entryX=0.478;entryY=0.05;entryDx=0;entryDy=0;entryPerimeter=0;fontSize=18;startArrow=none;startFill=0;exitX=0.5;exitY=1;exitDx=0;exitDy=0;" parent="CLgS07pZJv1Tw2EI7n1P-1" source="CLgS07pZJv1Tw2EI7n1P-8" target="CLgS07pZJv1Tw2EI7n1P-20" edge="1">
                    <mxGeometry relative="1" as="geometry"/>
                </mxCell>
                <mxCell id="CLgS07pZJv1Tw2EI7n1P-8" value="" style="rounded=1;whiteSpace=wrap;html=1;strokeWidth=2;fillWeight=2;hachureGap=8;hachureAngle=45;fillColor=none;sketch=1;fontSize=16;fillStyle=dots;" parent="CLgS07pZJv1Tw2EI7n1P-1" vertex="1">
                    <mxGeometry x="620" y="670" width="220" height="110" as="geometry"/>
                </mxCell>
                <mxCell id="EobQiTror4fOo6DMna0b-14" style="edgeStyle=orthogonalEdgeStyle;html=1;entryX=0.5;entryY=0;entryDx=0;entryDy=0;fontSize=18;startArrow=none;startFill=0;" parent="CLgS07pZJv1Tw2EI7n1P-1" source="CLgS07pZJv1Tw2EI7n1P-10" target="CLgS07pZJv1Tw2EI7n1P-8" edge="1">
                    <mxGeometry relative="1" as="geometry">
                        <Array as="points">
                            <mxPoint x="870" y="620"/>
                            <mxPoint x="730" y="620"/>
                        </Array>
                    </mxGeometry>
                </mxCell>
                <mxCell id="CLgS07pZJv1Tw2EI7n1P-10" value="&lt;font style=&quot;font-size: 18px&quot;&gt;client&lt;/font&gt;" style="ellipse;whiteSpace=wrap;html=1;strokeWidth=2;fillWeight=2;hachureGap=8;fillColor=#E9C46A;fillStyle=dots;sketch=1;fontSize=16;opacity=60;" parent="CLgS07pZJv1Tw2EI7n1P-1" vertex="1">
                    <mxGeometry x="810" y="540" width="120" height="60" as="geometry"/>
                </mxCell>
                <mxCell id="EobQiTror4fOo6DMna0b-13" style="edgeStyle=orthogonalEdgeStyle;html=1;entryX=0.5;entryY=0;entryDx=0;entryDy=0;fontSize=18;startArrow=none;startFill=0;" parent="CLgS07pZJv1Tw2EI7n1P-1" source="CLgS07pZJv1Tw2EI7n1P-12" target="CLgS07pZJv1Tw2EI7n1P-8" edge="1">
                    <mxGeometry relative="1" as="geometry"/>
                </mxCell>
                <mxCell id="CLgS07pZJv1Tw2EI7n1P-12" value="&lt;font style=&quot;font-size: 18px&quot;&gt;client&lt;/font&gt;" style="ellipse;whiteSpace=wrap;html=1;strokeWidth=2;fillWeight=2;hachureGap=8;fillColor=#E9C46A;fillStyle=dots;sketch=1;fontSize=16;opacity=60;" parent="CLgS07pZJv1Tw2EI7n1P-1" vertex="1">
                    <mxGeometry x="670" y="540" width="120" height="60" as="geometry"/>
                </mxCell>
                <mxCell id="EobQiTror4fOo6DMna0b-12" style="edgeStyle=orthogonalEdgeStyle;html=1;entryX=0.5;entryY=0;entryDx=0;entryDy=0;fontSize=18;startArrow=none;startFill=0;" parent="CLgS07pZJv1Tw2EI7n1P-1" source="CLgS07pZJv1Tw2EI7n1P-13" target="CLgS07pZJv1Tw2EI7n1P-8" edge="1">
                    <mxGeometry relative="1" as="geometry">
                        <Array as="points">
                            <mxPoint x="590" y="620"/>
                            <mxPoint x="730" y="620"/>
                        </Array>
                    </mxGeometry>
                </mxCell>
                <mxCell id="CLgS07pZJv1Tw2EI7n1P-13" value="&lt;font style=&quot;font-size: 18px&quot;&gt;client&lt;/font&gt;" style="ellipse;whiteSpace=wrap;html=1;strokeWidth=2;fillWeight=2;hachureGap=8;fillColor=#E9C46A;fillStyle=dots;sketch=1;fontSize=16;opacity=60;" parent="CLgS07pZJv1Tw2EI7n1P-1" vertex="1">
                    <mxGeometry x="530" y="540" width="120" height="60" as="geometry"/>
                </mxCell>
                <mxCell id="EobQiTror4fOo6DMna0b-9" style="edgeStyle=orthogonalEdgeStyle;html=1;fontSize=18;startArrow=none;startFill=0;exitX=0.5;exitY=1;exitDx=0;exitDy=0;" parent="CLgS07pZJv1Tw2EI7n1P-1" source="CLgS07pZJv1Tw2EI7n1P-8" target="EobQiTror4fOo6DMna0b-3" edge="1">
                    <mxGeometry relative="1" as="geometry"/>
                </mxCell>
                <mxCell id="EobQiTror4fOo6DMna0b-11" value="处理请求" style="edgeLabel;html=1;align=center;verticalAlign=middle;resizable=0;points=[];fontSize=18;" parent="EobQiTror4fOo6DMna0b-9" vertex="1" connectable="0">
                    <mxGeometry x="-0.7579" y="1" relative="1" as="geometry">
                        <mxPoint x="-1" y="-8" as="offset"/>
                    </mxGeometry>
                </mxCell>
                <mxCell id="CLgS07pZJv1Tw2EI7n1P-14" value="&lt;font style=&quot;font-size: 18px&quot;&gt;dispatch&lt;/font&gt;" style="rounded=1;whiteSpace=wrap;html=1;fontSize=16;fillColor=#5FAD56;strokeWidth=2;fillWeight=4;hachureGap=8;fillStyle=dashed;sketch=1;hachureAngle=45;opacity=60;" parent="CLgS07pZJv1Tw2EI7n1P-1" vertex="1">
                    <mxGeometry x="731.25" y="715" width="100" height="50" as="geometry"/>
                </mxCell>
                <mxCell id="CLgS07pZJv1Tw2EI7n1P-15" value="reactor" style="text;html=1;align=center;verticalAlign=middle;resizable=0;points=[];autosize=1;strokeColor=none;fillColor=none;fontSize=18;" parent="CLgS07pZJv1Tw2EI7n1P-1" vertex="1">
                    <mxGeometry x="692.5" y="675" width="70" height="30" as="geometry"/>
                </mxCell>
                <mxCell id="CLgS07pZJv1Tw2EI7n1P-16" value="" style="rounded=1;whiteSpace=wrap;html=1;strokeWidth=2;fillWeight=2;hachureGap=8;hachureAngle=45;fillColor=none;sketch=1;fontSize=16;fillStyle=dots;" parent="CLgS07pZJv1Tw2EI7n1P-1" vertex="1">
                    <mxGeometry x="920" y="675" width="170" height="100" as="geometry"/>
                </mxCell>
                <mxCell id="EobQiTror4fOo6DMna0b-23" style="edgeStyle=orthogonalEdgeStyle;html=1;entryX=0.46;entryY=-0.008;entryDx=0;entryDy=0;entryPerimeter=0;fontSize=18;startArrow=none;startFill=0;" parent="CLgS07pZJv1Tw2EI7n1P-1" source="CLgS07pZJv1Tw2EI7n1P-17" target="EobQiTror4fOo6DMna0b-15" edge="1">
                    <mxGeometry relative="1" as="geometry"/>
                </mxCell>
                <mxCell id="CLgS07pZJv1Tw2EI7n1P-17" value="" style="rounded=1;whiteSpace=wrap;html=1;strokeWidth=2;fillWeight=2;hachureGap=8;hachureAngle=45;fillColor=none;sketch=1;fontSize=16;fillStyle=dots;" parent="CLgS07pZJv1Tw2EI7n1P-1" vertex="1">
                    <mxGeometry x="467.5" y="870" width="230" height="120" as="geometry"/>
                </mxCell>
                <mxCell id="CLgS07pZJv1Tw2EI7n1P-18" value="&lt;font style=&quot;font-size: 18px&quot;&gt;accept&lt;/font&gt;" style="rounded=1;whiteSpace=wrap;html=1;fontSize=16;fillColor=#2A9D8F;strokeWidth=2;fillWeight=4;hachureGap=8;fillStyle=dashed;sketch=1;hachureAngle=45;opacity=60;" parent="CLgS07pZJv1Tw2EI7n1P-1" vertex="1">
                    <mxGeometry x="958.75" y="715" width="100" height="50" as="geometry"/>
                </mxCell>
                <mxCell id="CLgS07pZJv1Tw2EI7n1P-19" value="acceptor" style="text;html=1;align=center;verticalAlign=middle;resizable=0;points=[];autosize=1;strokeColor=none;fillColor=none;fontSize=18;" parent="CLgS07pZJv1Tw2EI7n1P-1" vertex="1">
                    <mxGeometry x="968.75" y="675" width="80" height="30" as="geometry"/>
                </mxCell>
                <mxCell id="CLgS07pZJv1Tw2EI7n1P-20" value="handler" style="text;html=1;align=center;verticalAlign=middle;resizable=0;points=[];autosize=1;strokeColor=none;fillColor=none;fontSize=18;" parent="CLgS07pZJv1Tw2EI7n1P-1" vertex="1">
                    <mxGeometry x="536.25" y="870" width="80" height="30" as="geometry"/>
                </mxCell>
                <mxCell id="CLgS07pZJv1Tw2EI7n1P-21" value="&lt;font style=&quot;font-size: 18px&quot;&gt;read&lt;/font&gt;" style="rounded=1;whiteSpace=wrap;html=1;fontSize=16;fillColor=#2A9D8F;strokeWidth=2;fillWeight=4;hachureGap=8;fillStyle=dashed;sketch=1;hachureAngle=45;opacity=60;" parent="CLgS07pZJv1Tw2EI7n1P-1" vertex="1">
                    <mxGeometry x="477.5" y="920" width="100" height="50" as="geometry"/>
                </mxCell>
                <mxCell id="CLgS07pZJv1Tw2EI7n1P-23" value="&lt;font style=&quot;font-size: 18px&quot;&gt;send&lt;/font&gt;" style="rounded=1;whiteSpace=wrap;html=1;fontSize=16;fillColor=#2A9D8F;strokeWidth=2;fillWeight=4;hachureGap=8;fillStyle=dashed;sketch=1;hachureAngle=45;opacity=60;" parent="CLgS07pZJv1Tw2EI7n1P-1" vertex="1">
                    <mxGeometry x="587.5" y="920" width="100" height="50" as="geometry"/>
                </mxCell>
                <mxCell id="EobQiTror4fOo6DMna0b-24" style="edgeStyle=orthogonalEdgeStyle;html=1;fontSize=18;startArrow=none;startFill=0;" parent="CLgS07pZJv1Tw2EI7n1P-1" source="EobQiTror4fOo6DMna0b-2" target="EobQiTror4fOo6DMna0b-18" edge="1">
                    <mxGeometry relative="1" as="geometry"/>
                </mxCell>
                <mxCell id="EobQiTror4fOo6DMna0b-2" value="" style="rounded=1;whiteSpace=wrap;html=1;strokeWidth=2;fillWeight=2;hachureGap=8;hachureAngle=45;fillColor=none;sketch=1;fontSize=16;fillStyle=dots;" parent="CLgS07pZJv1Tw2EI7n1P-1" vertex="1">
                    <mxGeometry x="762.5" y="870" width="230" height="120" as="geometry"/>
                </mxCell>
                <mxCell id="EobQiTror4fOo6DMna0b-3" value="handler" style="text;html=1;align=center;verticalAlign=middle;resizable=0;points=[];autosize=1;strokeColor=none;fillColor=none;fontSize=18;" parent="CLgS07pZJv1Tw2EI7n1P-1" vertex="1">
                    <mxGeometry x="831.25" y="870" width="80" height="30" as="geometry"/>
                </mxCell>
                <mxCell id="EobQiTror4fOo6DMna0b-4" value="&lt;font style=&quot;font-size: 18px&quot;&gt;read&lt;/font&gt;" style="rounded=1;whiteSpace=wrap;html=1;fontSize=16;fillColor=#2A9D8F;strokeWidth=2;fillWeight=4;hachureGap=8;fillStyle=dashed;sketch=1;hachureAngle=45;opacity=60;" parent="CLgS07pZJv1Tw2EI7n1P-1" vertex="1">
                    <mxGeometry x="772.5" y="920" width="100" height="50" as="geometry"/>
                </mxCell>
                <mxCell id="EobQiTror4fOo6DMna0b-6" value="&lt;font style=&quot;font-size: 18px&quot;&gt;send&lt;/font&gt;" style="rounded=1;whiteSpace=wrap;html=1;fontSize=16;fillColor=#2A9D8F;strokeWidth=2;fillWeight=4;hachureGap=8;fillStyle=dashed;sketch=1;hachureAngle=45;opacity=60;" parent="CLgS07pZJv1Tw2EI7n1P-1" vertex="1">
                    <mxGeometry x="882.5" y="920" width="100" height="50" as="geometry"/>
                </mxCell>
                <mxCell id="EobQiTror4fOo6DMna0b-15" value="" style="rounded=1;whiteSpace=wrap;html=1;strokeWidth=2;fillWeight=2;hachureGap=8;hachureAngle=45;fillColor=none;sketch=1;fontSize=16;fillStyle=dots;" parent="CLgS07pZJv1Tw2EI7n1P-1" vertex="1">
                    <mxGeometry x="513.75" y="1060" width="150" height="120" as="geometry"/>
                </mxCell>
                <mxCell id="EobQiTror4fOo6DMna0b-16" value="&lt;font style=&quot;font-size: 18px&quot;&gt;业务处理&lt;/font&gt;" style="rounded=1;whiteSpace=wrap;html=1;fontSize=16;fillColor=#2A9D8F;strokeWidth=2;fillWeight=4;hachureGap=8;fillStyle=dashed;sketch=1;hachureAngle=45;opacity=60;" parent="CLgS07pZJv1Tw2EI7n1P-1" vertex="1">
                    <mxGeometry x="536.25" y="1120" width="100" height="50" as="geometry"/>
                </mxCell>
                <mxCell id="EobQiTror4fOo6DMna0b-17" value="processor" style="text;html=1;align=center;verticalAlign=middle;resizable=0;points=[];autosize=1;strokeColor=none;fillColor=none;fontSize=18;" parent="CLgS07pZJv1Tw2EI7n1P-1" vertex="1">
                    <mxGeometry x="536.25" y="1070" width="90" height="30" as="geometry"/>
                </mxCell>
                <mxCell id="EobQiTror4fOo6DMna0b-18" value="" style="rounded=1;whiteSpace=wrap;html=1;strokeWidth=2;fillWeight=2;hachureGap=8;hachureAngle=45;fillColor=none;sketch=1;fontSize=16;fillStyle=dots;" parent="CLgS07pZJv1Tw2EI7n1P-1" vertex="1">
                    <mxGeometry x="802.5" y="1060" width="150" height="120" as="geometry"/>
                </mxCell>
                <mxCell id="EobQiTror4fOo6DMna0b-19" value="&lt;font style=&quot;font-size: 18px&quot;&gt;业务处理&lt;/font&gt;" style="rounded=1;whiteSpace=wrap;html=1;fontSize=16;fillColor=#2A9D8F;strokeWidth=2;fillWeight=4;hachureGap=8;fillStyle=dashed;sketch=1;hachureAngle=45;opacity=60;" parent="CLgS07pZJv1Tw2EI7n1P-1" vertex="1">
                    <mxGeometry x="825" y="1120" width="100" height="50" as="geometry"/>
                </mxCell>
                <mxCell id="EobQiTror4fOo6DMna0b-20" value="processor" style="text;html=1;align=center;verticalAlign=middle;resizable=0;points=[];autosize=1;strokeColor=none;fillColor=none;fontSize=18;" parent="CLgS07pZJv1Tw2EI7n1P-1" vertex="1">
                    <mxGeometry x="825" y="1070" width="90" height="30" as="geometry"/>
                </mxCell>
                <mxCell id="EobQiTror4fOo6DMna0b-21" value="子线程1" style="text;html=1;align=center;verticalAlign=middle;resizable=0;points=[];autosize=1;strokeColor=none;fillColor=none;fontSize=18;" parent="CLgS07pZJv1Tw2EI7n1P-1" vertex="1">
                    <mxGeometry x="507.5" y="1030" width="80" height="30" as="geometry"/>
                </mxCell>
                <mxCell id="EobQiTror4fOo6DMna0b-22" value="子线程2" style="text;html=1;align=center;verticalAlign=middle;resizable=0;points=[];autosize=1;strokeColor=none;fillColor=none;fontSize=18;" parent="CLgS07pZJv1Tw2EI7n1P-1" vertex="1">
                    <mxGeometry x="872.5" y="1030" width="80" height="30" as="geometry"/>
                </mxCell>
                <mxCell id="EobQiTror4fOo6DMna0b-25" value="主线程" style="text;html=1;align=center;verticalAlign=middle;resizable=0;points=[];autosize=1;strokeColor=none;fillColor=none;fontSize=18;" parent="CLgS07pZJv1Tw2EI7n1P-1" vertex="1">
                    <mxGeometry x="450" y="645" width="70" height="30" as="geometry"/>
                </mxCell>
                <mxCell id="EobQiTror4fOo6DMna0b-26" value="" style="verticalLabelPosition=bottom;verticalAlign=top;html=1;shape=mxgraph.basic.rect;fillColor2=none;strokeWidth=1;size=20;indent=5;fillColor=none;dashed=1;strokeColor=#E63946;" parent="CLgS07pZJv1Tw2EI7n1P-1" vertex="1">
                    <mxGeometry x="450" y="1030" width="650" height="160" as="geometry"/>
                </mxCell>
                <mxCell id="EobQiTror4fOo6DMna0b-27" value="线程池" style="text;html=1;align=center;verticalAlign=middle;resizable=0;points=[];autosize=1;strokeColor=none;fillColor=none;fontSize=18;" parent="CLgS07pZJv1Tw2EI7n1P-1" vertex="1">
                    <mxGeometry x="1020" y="1040" width="70" height="30" as="geometry"/>
                </mxCell>
                <mxCell id="EobQiTror4fOo6DMna0b-29" value="&lt;font style=&quot;font-size: 18px&quot;&gt;select&lt;/font&gt;" style="rounded=1;whiteSpace=wrap;html=1;fontSize=16;fillColor=#5FAD56;strokeWidth=2;fillWeight=4;hachureGap=8;fillStyle=dashed;sketch=1;hachureAngle=45;opacity=60;" parent="CLgS07pZJv1Tw2EI7n1P-1" vertex="1">
                    <mxGeometry x="625" y="715" width="100" height="50" as="geometry"/>
                </mxCell>
            </root>
        </mxGraphModel>
    </diagram>
    <diagram id="AMCQjJ7Fe81_brut-4Ob" name="reactor-list">
        <mxGraphModel dx="898" dy="680" grid="1" gridSize="10" guides="1" tooltips="1" connect="1" arrows="1" fold="1" page="1" pageScale="1" pageWidth="3300" pageHeight="4681" math="0" shadow="0">
            <root>
                <mxCell id="Vo4qKcyDv-nj8S5_PWlO-0"/>
                <mxCell id="Vo4qKcyDv-nj8S5_PWlO-1" parent="Vo4qKcyDv-nj8S5_PWlO-0"/>
                <mxCell id="dql2BO8ekm0SjjnZcF9l-35" value="acceptor处理,并创建handler" style="rounded=1;whiteSpace=wrap;html=1;strokeWidth=2;fillWeight=2;hachureGap=8;hachureAngle=45;fillColor=#E9C46A;sketch=1;fontSize=16;fillStyle=dots;opacity=60;" parent="Vo4qKcyDv-nj8S5_PWlO-1" vertex="1">
                    <mxGeometry x="410" y="1220" width="120" height="60" as="geometry"/>
                </mxCell>
                <mxCell id="XyxAZcIdQBnmRYY6EhWd-0" style="edgeStyle=orthogonalEdgeStyle;html=1;fontSize=18;startArrow=none;startFill=0;" parent="Vo4qKcyDv-nj8S5_PWlO-1" source="dql2BO8ekm0SjjnZcF9l-43" target="dql2BO8ekm0SjjnZcF9l-46" edge="1">
                    <mxGeometry relative="1" as="geometry"/>
                </mxCell>
                <mxCell id="dql2BO8ekm0SjjnZcF9l-43" value="&lt;span style=&quot;font-size: 18px&quot;&gt;监听事件&lt;/span&gt;" style="rounded=0;whiteSpace=wrap;html=1;fontFamily=Helvetica;fontSize=12;fontColor=default;strokeColor=default;fillColor=#2A9D8F;strokeWidth=2;fillWeight=2;hachureGap=8;fillStyle=dots;sketch=1;opacity=60;" parent="Vo4qKcyDv-nj8S5_PWlO-1" vertex="1">
                    <mxGeometry x="545" y="870" width="120" height="60" as="geometry"/>
                </mxCell>
                <mxCell id="gb_3qpBqbyOEa_ATh_yt-0" style="edgeStyle=orthogonalEdgeStyle;html=1;entryX=0.5;entryY=0;entryDx=0;entryDy=0;fontSize=16;startArrow=none;startFill=0;" parent="Vo4qKcyDv-nj8S5_PWlO-1" source="dql2BO8ekm0SjjnZcF9l-46" target="dql2BO8ekm0SjjnZcF9l-47" edge="1">
                    <mxGeometry relative="1" as="geometry"/>
                </mxCell>
                <mxCell id="dql2BO8ekm0SjjnZcF9l-46" value="捕获事件" style="whiteSpace=wrap;html=1;fontSize=16;fillColor=#5FAD56;rounded=1;strokeWidth=2;fillWeight=4;hachureGap=8;hachureAngle=45;sketch=1;opacity=60;" parent="Vo4qKcyDv-nj8S5_PWlO-1" vertex="1">
                    <mxGeometry x="545" y="980" width="120" height="60" as="geometry"/>
                </mxCell>
                <mxCell id="gb_3qpBqbyOEa_ATh_yt-3" style="edgeStyle=orthogonalEdgeStyle;html=1;entryX=0.5;entryY=0;entryDx=0;entryDy=0;fontSize=16;startArrow=none;startFill=0;" parent="Vo4qKcyDv-nj8S5_PWlO-1" source="dql2BO8ekm0SjjnZcF9l-47" target="dql2BO8ekm0SjjnZcF9l-35" edge="1">
                    <mxGeometry relative="1" as="geometry"/>
                </mxCell>
                <mxCell id="gb_3qpBqbyOEa_ATh_yt-4" style="edgeStyle=orthogonalEdgeStyle;html=1;fontSize=16;startArrow=none;startFill=0;" parent="Vo4qKcyDv-nj8S5_PWlO-1" source="dql2BO8ekm0SjjnZcF9l-47" target="gb_3qpBqbyOEa_ATh_yt-2" edge="1">
                    <mxGeometry relative="1" as="geometry"/>
                </mxCell>
                <mxCell id="gb_3qpBqbyOEa_ATh_yt-8" value="写事件" style="edgeLabel;html=1;align=center;verticalAlign=middle;resizable=0;points=[];fontSize=16;" parent="gb_3qpBqbyOEa_ATh_yt-4" vertex="1" connectable="0">
                    <mxGeometry x="0.4841" relative="1" as="geometry">
                        <mxPoint y="5" as="offset"/>
                    </mxGeometry>
                </mxCell>
                <mxCell id="gb_3qpBqbyOEa_ATh_yt-5" style="edgeStyle=orthogonalEdgeStyle;html=1;fontSize=16;startArrow=none;startFill=0;" parent="Vo4qKcyDv-nj8S5_PWlO-1" source="dql2BO8ekm0SjjnZcF9l-47" target="gb_3qpBqbyOEa_ATh_yt-1" edge="1">
                    <mxGeometry relative="1" as="geometry"/>
                </mxCell>
                <mxCell id="gb_3qpBqbyOEa_ATh_yt-7" value="读事件" style="edgeLabel;html=1;align=center;verticalAlign=middle;resizable=0;points=[];fontSize=16;" parent="gb_3qpBqbyOEa_ATh_yt-5" vertex="1" connectable="0">
                    <mxGeometry x="-0.46" y="2" relative="1" as="geometry">
                        <mxPoint as="offset"/>
                    </mxGeometry>
                </mxCell>
                <mxCell id="dql2BO8ekm0SjjnZcF9l-47" value="&lt;font style=&quot;font-size: 16px&quot;&gt;事件类型&lt;/font&gt;" style="rhombus;whiteSpace=wrap;html=1;fontSize=12;fillColor=#2A9D8F;rounded=0;strokeWidth=2;fillWeight=2;hachureGap=8;fillStyle=dots;sketch=1;hachureAngle=45;opacity=60;" parent="Vo4qKcyDv-nj8S5_PWlO-1" vertex="1">
                    <mxGeometry x="552.5" y="1090" width="105" height="80" as="geometry"/>
                </mxCell>
                <mxCell id="gb_3qpBqbyOEa_ATh_yt-1" value="handler处理" style="rounded=1;whiteSpace=wrap;html=1;strokeWidth=2;fillWeight=2;hachureGap=8;hachureAngle=45;fillColor=#E9C46A;sketch=1;fontSize=16;fillStyle=dots;opacity=60;" parent="Vo4qKcyDv-nj8S5_PWlO-1" vertex="1">
                    <mxGeometry x="545" y="1220" width="120" height="60" as="geometry"/>
                </mxCell>
                <mxCell id="gb_3qpBqbyOEa_ATh_yt-2" value="handler处理" style="rounded=1;whiteSpace=wrap;html=1;strokeWidth=2;fillWeight=2;hachureGap=8;hachureAngle=45;fillColor=#E9C46A;sketch=1;fontSize=16;fillStyle=dots;opacity=60;" parent="Vo4qKcyDv-nj8S5_PWlO-1" vertex="1">
                    <mxGeometry x="680" y="1220" width="120" height="60" as="geometry"/>
                </mxCell>
                <mxCell id="gb_3qpBqbyOEa_ATh_yt-6" value="连接事件" style="text;html=1;align=center;verticalAlign=middle;resizable=0;points=[];autosize=1;strokeColor=none;fillColor=none;fontSize=16;" parent="Vo4qKcyDv-nj8S5_PWlO-1" vertex="1">
                    <mxGeometry x="430" y="1170" width="80" height="20" as="geometry"/>
                </mxCell>
            </root>
        </mxGraphModel>
    </diagram>
    <diagram id="Sln0QfoDv3o13MeQ-f5I" name="reactor">
        <mxGraphModel dx="898" dy="680" grid="1" gridSize="10" guides="1" tooltips="1" connect="1" arrows="1" fold="1" page="1" pageScale="1" pageWidth="3300" pageHeight="4681" math="0" shadow="0">
            <root>
                <mxCell id="B5VFJ7lNq1nwlTygibGI-0"/>
                <mxCell id="B5VFJ7lNq1nwlTygibGI-1" parent="B5VFJ7lNq1nwlTygibGI-0"/>
                <mxCell id="4hEvKGFas-XP4M9qF5xe-7" style="edgeStyle=orthogonalEdgeStyle;html=1;entryX=0;entryY=0.5;entryDx=0;entryDy=0;fontSize=18;" parent="B5VFJ7lNq1nwlTygibGI-1" source="p799NbyyXfZgzrv5Tnzc-0" target="jXfEjZMSy8tfTScUWLBG-0" edge="1">
                    <mxGeometry relative="1" as="geometry"/>
                </mxCell>
                <mxCell id="p799NbyyXfZgzrv5Tnzc-0" value="&lt;font style=&quot;font-size: 18px&quot;&gt;client&lt;/font&gt;" style="rounded=0;whiteSpace=wrap;html=1;fontFamily=Helvetica;fontSize=12;fontColor=default;strokeColor=default;fillColor=#E9C46A;strokeWidth=2;fillWeight=2;hachureGap=8;fillStyle=dots;sketch=1;opacity=60;" parent="B5VFJ7lNq1nwlTygibGI-1" vertex="1">
                    <mxGeometry x="240" y="550" width="120" height="60" as="geometry"/>
                </mxCell>
                <mxCell id="4hEvKGFas-XP4M9qF5xe-10" style="edgeStyle=orthogonalEdgeStyle;html=1;entryX=0;entryY=0.5;entryDx=0;entryDy=0;fontSize=18;" parent="B5VFJ7lNq1nwlTygibGI-1" source="jXfEjZMSy8tfTScUWLBG-0" target="OgSJZdiGVKwWTKnaTDDr-0" edge="1">
                    <mxGeometry relative="1" as="geometry">
                        <Array as="points">
                            <mxPoint x="570" y="690"/>
                            <mxPoint x="570" y="580"/>
                        </Array>
                    </mxGeometry>
                </mxCell>
                <mxCell id="4hEvKGFas-XP4M9qF5xe-15" value="连接事件" style="edgeLabel;html=1;align=center;verticalAlign=middle;resizable=0;points=[];fontSize=18;" parent="4hEvKGFas-XP4M9qF5xe-10" vertex="1" connectable="0">
                    <mxGeometry x="0.2" relative="1" as="geometry">
                        <mxPoint x="1" y="30" as="offset"/>
                    </mxGeometry>
                </mxCell>
                <mxCell id="4hEvKGFas-XP4M9qF5xe-11" style="edgeStyle=orthogonalEdgeStyle;html=1;entryX=0;entryY=0.5;entryDx=0;entryDy=0;fontSize=18;fillColor=#a20025;strokeColor=#6F0000;" parent="B5VFJ7lNq1nwlTygibGI-1" source="jXfEjZMSy8tfTScUWLBG-0" target="OgSJZdiGVKwWTKnaTDDr-1" edge="1">
                    <mxGeometry relative="1" as="geometry"/>
                </mxCell>
                <mxCell id="4hEvKGFas-XP4M9qF5xe-17" value="读&lt;br&gt;写&lt;br&gt;事&lt;br&gt;件" style="edgeLabel;html=1;align=center;verticalAlign=middle;resizable=0;points=[];fontSize=18;" parent="4hEvKGFas-XP4M9qF5xe-11" vertex="1" connectable="0">
                    <mxGeometry x="0.0087" y="3" relative="1" as="geometry">
                        <mxPoint y="1" as="offset"/>
                    </mxGeometry>
                </mxCell>
                <mxCell id="4hEvKGFas-XP4M9qF5xe-12" style="edgeStyle=orthogonalEdgeStyle;html=1;entryX=0;entryY=0.5;entryDx=0;entryDy=0;fontSize=18;fillColor=#a20025;strokeColor=#6F0000;" parent="B5VFJ7lNq1nwlTygibGI-1" source="jXfEjZMSy8tfTScUWLBG-0" target="4hEvKGFas-XP4M9qF5xe-3" edge="1">
                    <mxGeometry relative="1" as="geometry">
                        <Array as="points">
                            <mxPoint x="570" y="690"/>
                            <mxPoint x="570" y="810"/>
                        </Array>
                    </mxGeometry>
                </mxCell>
                <mxCell id="4hEvKGFas-XP4M9qF5xe-16" value="读写事件" style="edgeLabel;html=1;align=center;verticalAlign=middle;resizable=0;points=[];fontSize=18;" parent="4hEvKGFas-XP4M9qF5xe-12" vertex="1" connectable="0">
                    <mxGeometry x="0.0256" y="1" relative="1" as="geometry">
                        <mxPoint y="-16" as="offset"/>
                    </mxGeometry>
                </mxCell>
                <mxCell id="jXfEjZMSy8tfTScUWLBG-0" value="&lt;font style=&quot;font-size: 18px&quot;&gt;reactor&lt;/font&gt;" style="rounded=1;whiteSpace=wrap;html=1;strokeWidth=2;fillWeight=4;hachureGap=8;hachureAngle=45;fillColor=#5FAD56;sketch=1;fontSize=16;opacity=60;" parent="B5VFJ7lNq1nwlTygibGI-1" vertex="1">
                    <mxGeometry x="435" y="660" width="110" height="60" as="geometry"/>
                </mxCell>
                <mxCell id="4hEvKGFas-XP4M9qF5xe-13" style="edgeStyle=orthogonalEdgeStyle;html=1;entryX=1;entryY=0.5;entryDx=0;entryDy=0;fontSize=18;dashed=1;" parent="B5VFJ7lNq1nwlTygibGI-1" source="OgSJZdiGVKwWTKnaTDDr-0" target="OgSJZdiGVKwWTKnaTDDr-1" edge="1">
                    <mxGeometry relative="1" as="geometry">
                        <Array as="points">
                            <mxPoint x="820" y="580"/>
                            <mxPoint x="820" y="690"/>
                        </Array>
                    </mxGeometry>
                </mxCell>
                <mxCell id="4hEvKGFas-XP4M9qF5xe-14" style="edgeStyle=orthogonalEdgeStyle;html=1;entryX=1;entryY=0.5;entryDx=0;entryDy=0;fontSize=18;dashed=1;" parent="B5VFJ7lNq1nwlTygibGI-1" source="OgSJZdiGVKwWTKnaTDDr-0" target="4hEvKGFas-XP4M9qF5xe-3" edge="1">
                    <mxGeometry relative="1" as="geometry">
                        <Array as="points">
                            <mxPoint x="820" y="580"/>
                            <mxPoint x="820" y="810"/>
                        </Array>
                    </mxGeometry>
                </mxCell>
                <mxCell id="4hEvKGFas-XP4M9qF5xe-18" value="创建handler" style="edgeLabel;html=1;align=center;verticalAlign=middle;resizable=0;points=[];fontSize=18;" parent="4hEvKGFas-XP4M9qF5xe-14" vertex="1" connectable="0">
                    <mxGeometry x="-0.371" y="-1" relative="1" as="geometry">
                        <mxPoint x="-29" y="-7" as="offset"/>
                    </mxGeometry>
                </mxCell>
                <mxCell id="OgSJZdiGVKwWTKnaTDDr-0" value="&lt;font style=&quot;font-size: 18px&quot;&gt;acceptor&lt;/font&gt;" style="rounded=1;whiteSpace=wrap;html=1;fontFamily=Helvetica;fontSize=16;fontColor=default;strokeColor=default;fillColor=#2A9D8F;strokeWidth=2;fillWeight=4;hachureGap=8;fillStyle=dashed;sketch=1;hachureAngle=45;opacity=60;" parent="B5VFJ7lNq1nwlTygibGI-1" vertex="1">
                    <mxGeometry x="660" y="550" width="120" height="60" as="geometry"/>
                </mxCell>
                <mxCell id="OgSJZdiGVKwWTKnaTDDr-1" value="&lt;font style=&quot;font-size: 18px&quot;&gt;handler&lt;/font&gt;" style="rounded=0;whiteSpace=wrap;html=1;fontFamily=Helvetica;fontSize=12;fontColor=default;strokeColor=default;fillColor=#2A9D8F;strokeWidth=2;fillWeight=2;hachureGap=8;fillStyle=dots;sketch=1;hachureAngle=45;opacity=60;" parent="B5VFJ7lNq1nwlTygibGI-1" vertex="1">
                    <mxGeometry x="660" y="660" width="120" height="60" as="geometry"/>
                </mxCell>
                <mxCell id="4hEvKGFas-XP4M9qF5xe-3" value="&lt;font style=&quot;font-size: 18px&quot;&gt;handler&lt;/font&gt;" style="rounded=0;whiteSpace=wrap;html=1;fontFamily=Helvetica;fontSize=12;fontColor=default;strokeColor=default;fillColor=#2A9D8F;strokeWidth=2;fillWeight=2;hachureGap=8;fillStyle=dots;sketch=1;hachureAngle=45;opacity=60;" parent="B5VFJ7lNq1nwlTygibGI-1" vertex="1">
                    <mxGeometry x="660" y="780" width="120" height="60" as="geometry"/>
                </mxCell>
                <mxCell id="4hEvKGFas-XP4M9qF5xe-8" style="edgeStyle=orthogonalEdgeStyle;html=1;entryX=0;entryY=0.5;entryDx=0;entryDy=0;fontSize=18;" parent="B5VFJ7lNq1nwlTygibGI-1" source="4hEvKGFas-XP4M9qF5xe-5" target="jXfEjZMSy8tfTScUWLBG-0" edge="1">
                    <mxGeometry relative="1" as="geometry"/>
                </mxCell>
                <mxCell id="4hEvKGFas-XP4M9qF5xe-5" value="&lt;font style=&quot;font-size: 18px&quot;&gt;client&lt;/font&gt;" style="rounded=0;whiteSpace=wrap;html=1;fontFamily=Helvetica;fontSize=12;fontColor=default;strokeColor=default;fillColor=#E9C46A;strokeWidth=2;fillWeight=2;hachureGap=8;fillStyle=dots;sketch=1;opacity=60;" parent="B5VFJ7lNq1nwlTygibGI-1" vertex="1">
                    <mxGeometry x="240" y="660" width="120" height="60" as="geometry"/>
                </mxCell>
                <mxCell id="4hEvKGFas-XP4M9qF5xe-9" style="edgeStyle=orthogonalEdgeStyle;html=1;entryX=0;entryY=0.5;entryDx=0;entryDy=0;fontSize=18;" parent="B5VFJ7lNq1nwlTygibGI-1" source="4hEvKGFas-XP4M9qF5xe-6" target="jXfEjZMSy8tfTScUWLBG-0" edge="1">
                    <mxGeometry relative="1" as="geometry"/>
                </mxCell>
                <mxCell id="4hEvKGFas-XP4M9qF5xe-6" value="&lt;font style=&quot;font-size: 18px&quot;&gt;client&lt;/font&gt;" style="rounded=0;whiteSpace=wrap;html=1;fontFamily=Helvetica;fontSize=12;fontColor=default;strokeColor=default;fillColor=#E9C46A;strokeWidth=2;fillWeight=2;hachureGap=8;fillStyle=dots;sketch=1;opacity=60;" parent="B5VFJ7lNq1nwlTygibGI-1" vertex="1">
                    <mxGeometry x="240" y="770" width="120" height="60" as="geometry"/>
                </mxCell>
            </root>
        </mxGraphModel>
    </diagram>
</mxfile>